<svg width="308" height="45" viewBox="0 0 308 45" fill="none" xmlns="http://www.w3.org/2000/svg">
<path d="M152.865 5.53659V41.815L148.921 45V14.8207H141.496L152.865 5.53659V5.53659ZM289.675 0C292.978 0 296.045 0.49927 298.877 1.49781C301.601 2.44087 303.95 3.50152 305.925 4.67854L306.27 4.88778L302.18 12.6922C301.807 12.3865 301.28 12.0361 300.6 11.6424L300.213 11.4229L299.796 11.195L299.349 10.958C298.09 10.2748 296.596 9.69657 294.865 9.22383C293.131 8.6976 291.329 8.43181 289.518 8.43513C284.589 8.43513 282.124 9.82802 282.124 12.6138C282.124 14.2425 283.016 15.399 284.798 16.0822L285.205 16.2299L285.636 16.38L286.094 16.5326L286.577 16.6869L287.086 16.8443L287.62 17.0041C287.712 17.0312 287.804 17.0584 287.897 17.0849L288.47 17.2477L289.069 17.4141L289.693 17.5818L290.343 17.7524L291.019 17.9255L292.081 18.1896L292.821 18.3687C295.914 19.1568 298.589 20.0504 300.843 21.0489C303.054 22.0059 304.759 23.2763 305.959 24.861L306.112 25.0696C307.371 26.6989 308 28.8533 308 31.5336C308 34.7921 307.161 37.4199 305.483 39.4176C303.858 41.3616 301.708 42.781 299.034 43.6746C296.36 44.5152 293.476 44.9355 290.383 44.9355C286.817 44.9355 283.278 44.4362 279.765 43.4377C276.419 42.4868 273.431 41.2024 270.798 39.584L270.406 39.3386L274.653 31.0608C275.335 31.744 276.462 32.5062 278.035 33.3468C279.66 34.1879 281.548 34.8976 283.697 35.4753C285.847 36.0541 288.128 36.343 290.54 36.343C295.364 36.343 297.776 35.055 297.776 32.4797C297.776 30.7455 296.649 29.5106 294.394 28.7749L293.852 28.5838L293.282 28.3902L292.686 28.1937L292.062 27.9935L291.411 27.7909L290.733 27.5847L290.384 27.4809L289.666 27.2705L288.92 27.057L288.146 26.8406L287.346 26.6211L286.095 26.2864L285.664 26.1731C281.155 25.0172 277.799 23.5453 275.597 21.7586C273.447 19.9189 272.372 17.2905 272.372 13.8746C272.372 10.8266 273.132 8.27775 274.652 6.22821C276.226 4.17807 278.323 2.6278 280.945 1.5768C283.619 0.525801 286.529 0 289.675 0ZM216.738 0.0783878C220.065 0.0783878 223.103 0.686194 225.849 1.9012L226.177 2.04954C229.009 3.31098 231.42 5.01923 233.413 7.17369C235.458 9.27629 237.029 11.6677 238.13 14.348C239.231 17.0282 239.783 19.7609 239.783 22.5467C239.783 25.4374 239.207 28.2226 238.053 30.9035C236.9 33.5313 235.273 35.8962 233.175 37.9982C231.131 40.0483 228.694 41.677 225.863 42.8859C223.032 44.0949 219.938 44.6991 216.582 44.6991C213.122 44.6991 209.976 44.0949 207.144 42.8859C204.313 41.6245 201.874 39.9434 199.828 37.8408C197.784 35.6857 196.21 33.2684 195.11 30.5881C194.01 27.9072 193.458 25.148 193.458 22.3104C193.458 19.4197 194.035 16.6339 195.188 13.9536C196.278 11.4126 197.837 9.10079 199.783 7.13992L200.066 6.85833C202.163 4.75633 204.626 3.10054 207.457 1.89216C210.289 0.683179 213.383 0.0789907 216.738 0.0789907V0.0783878ZM26.9765 0.315963L46.0881 44.3844H36.0216L31.6169 34.0565H14.55L10.146 44.3838H0L19.1898 0.31536H26.9765V0.315963ZM83.2707 0.315963L95.3838 15.9248L107.495 0.31536H117.798L100.416 22.6257L117.248 44.3838H106.945L95.3825 29.4057L83.9005 44.3838H73.44L90.3499 22.6257L72.8895 0.31536H83.2713L83.2707 0.315963ZM160.079 0.113361V29.6022H167.713L156.142 39.1197V2.86055L160.078 0.113361H160.079ZM216.583 8.59311C213.699 8.59311 211.233 9.27629 209.189 10.6426C207.196 12.009 205.675 13.7432 204.627 15.8458C203.578 17.9478 203.054 20.1294 203.054 22.3894C203.054 24.7543 203.606 27.0142 204.707 29.1687C205.807 31.2713 207.353 32.9795 209.346 34.2928C211.391 35.6073 213.828 36.264 216.66 36.264C219.544 36.264 221.982 35.5808 223.974 34.2138C225.969 32.795 227.487 31.0343 228.536 28.9317C229.585 26.7773 230.11 24.5703 230.11 22.3104C230.11 19.9455 229.56 17.7114 228.459 15.6094C227.358 13.5068 225.785 11.8251 223.739 10.5637C221.746 9.24975 219.362 8.59311 216.583 8.59311V8.59311ZM23.1229 11.9029L16.6735 25.7793H29.3364L23.1223 11.9047L23.1229 11.9029Z" fill="#5A29E4"/>
</svg>
