<svg width="154" height="45" viewBox="0 0 154 45" fill="none" xmlns="http://www.w3.org/2000/svg">
<path d="M1.0022 35.0899V17.7979H22.401V16.7864H1.0022V1.01116H23.7539V0H0V36.1011H23.9542V35.0899H1.0025H1.0022ZM43.2484 10.1122L34.3784 21.8932L25.7084 10.1125H24.4054L33.7768 22.6519L23.503 36.1008H24.7059L34.3778 23.4096L44.0999 36.1008H45.3527L35.0293 22.6513L44.4507 10.1119H43.2481L43.2484 10.1122ZM48.3599 45V28.8205H48.4601C49.0616 31.18 50.2476 33.0761 52.0183 34.5087C53.789 35.9411 56.044 36.6576 58.7835 36.6576C60.5542 36.6576 62.1246 36.2953 63.4943 35.5706C64.8641 34.8459 66.0083 33.8599 66.9271 32.6127C67.8457 31.3654 68.5474 29.916 69.032 28.2643C69.5163 26.6128 69.7587 24.8766 69.7587 23.0567C69.7587 21.1015 69.5078 19.2979 69.0067 17.6465C68.5056 15.9947 67.7789 14.562 66.827 13.3487C65.8747 12.1351 64.7221 11.1911 63.3689 10.5173C62.016 9.84304 60.4874 9.50588 58.7835 9.50588C57.4805 9.50588 56.2696 9.6998 55.1503 10.0873C54.0311 10.4752 53.0374 11.0226 52.1687 11.7306C51.295 12.4441 50.5344 13.288 49.9134 14.2333C49.2788 15.1941 48.7942 16.2475 48.4601 17.3937H48.3599V10.1122H47.3577V45H48.3599V45ZM58.7835 35.6965C55.6433 35.6965 53.1207 34.6095 51.2164 32.4354C49.3122 30.2614 48.3599 27.1347 48.3599 23.0561C48.3599 21.3706 48.5939 19.7695 49.0616 18.2528C49.5293 16.736 50.2058 15.4044 51.091 14.2585C51.9765 13.1123 53.0707 12.2022 54.3734 11.5282C55.6764 10.8539 57.1466 10.5167 58.7835 10.5167C60.454 10.5167 61.9158 10.8539 63.1686 11.5282C64.4213 12.2022 65.4572 13.1208 66.2756 14.2837C67.0941 15.4466 67.7122 16.7782 68.13 18.278C68.5474 19.778 68.7562 21.3706 68.7562 23.0561C68.7562 24.5732 68.5643 26.0817 68.1799 27.5814C67.7958 29.0815 67.2027 30.4298 66.4008 31.6267C65.5992 32.823 64.572 33.8004 63.319 34.5591C62.0659 35.3175 60.5542 35.6965 58.7835 35.6965V35.6965ZM75.2711 36.1011V21.3876C75.2711 19.9719 75.4714 18.5896 75.8727 17.2416C76.2733 15.8933 76.8914 14.7049 77.7267 13.6771C78.562 12.6489 79.6225 11.8399 80.909 11.2499C82.1951 10.66 83.7237 10.4157 85.4944 10.5167V9.50558C83.9574 9.4722 82.6129 9.64032 81.4603 10.0112C80.3074 10.382 79.3136 10.8876 78.4783 11.5282C77.6431 12.1685 76.975 12.9184 76.4739 13.7781C75.9732 14.6365 75.6016 15.5651 75.3713 16.5336H75.2711V10.1122H74.2689V36.1014H75.2711V36.1011ZM86.7471 23.3089H108.296C108.363 21.5224 108.188 19.8035 107.77 18.1517C107.352 16.4999 106.684 15.0336 105.766 13.7529C104.847 12.472 103.661 11.4438 102.207 10.6685C100.754 9.89311 99.025 9.50558 97.0206 9.50558C95.5838 9.50558 94.1806 9.80905 92.8109 10.416C91.4411 11.0226 90.2383 11.9072 89.2027 13.0701C88.1671 14.233 87.3318 15.6572 86.6972 17.343C86.0625 19.0282 85.7449 20.9494 85.7449 23.1068C85.7449 25.0281 85.9621 26.8231 86.3964 28.4916C86.8307 30.16 87.4988 31.6097 88.4008 32.84C89.3032 34.0702 90.4642 35.0225 91.8839 35.6965C93.3035 36.3708 95.0159 36.691 97.0206 36.6573C99.9604 36.6573 102.433 35.8228 104.437 34.1546C106.442 32.4858 107.628 30.1348 107.996 27.1011H106.993C106.559 29.9664 105.448 32.1153 103.661 33.5477C101.873 34.9803 99.6266 35.6965 96.9201 35.6965C95.0827 35.6965 93.5291 35.3764 92.2595 34.736C90.9902 34.0957 89.9544 33.219 89.1525 32.1068C88.3509 30.9943 87.7577 29.6881 87.3736 28.1881C86.9893 26.6883 86.7805 25.0617 86.7471 23.3089ZM107.294 22.2977H86.7474C86.8473 20.4775 87.1814 18.8427 87.7493 17.3934C88.3175 15.9437 89.0607 14.7049 89.9796 13.6771C90.8982 12.6489 91.9675 11.8654 93.1868 11.3258C94.4062 10.7865 95.7176 10.5167 97.1208 10.5167C98.7913 10.5167 100.261 10.8287 101.531 11.4523C102.8 12.076 103.861 12.9272 104.713 14.0057C105.565 15.0843 106.208 16.34 106.642 17.7724C107.077 19.2051 107.294 20.7136 107.294 22.2977ZM129.094 17.7979H130.096C130.096 14.8988 129.26 12.7922 127.59 11.4775C125.919 10.1629 123.648 9.50558 120.775 9.50558C119.171 9.50558 117.818 9.70799 116.715 10.1125C115.613 10.5167 114.711 11.0393 114.009 11.6796C113.308 12.32 112.807 13.028 112.506 13.8033C112.205 14.5787 112.055 15.3204 112.055 16.0281C112.055 17.4437 112.305 18.573 112.807 19.4157C113.308 20.2584 114.093 20.9157 115.162 21.3876C115.897 21.7245 116.732 22.028 117.667 22.298C118.603 22.5675 119.689 22.854 120.925 23.1572C122.027 23.4273 123.113 23.6967 124.182 23.9662C125.251 24.236 126.195 24.5983 127.014 25.0532C127.832 25.5084 128.5 26.0899 129.018 26.7979C129.536 27.5056 129.795 28.4327 129.795 29.5786C129.795 30.6911 129.536 31.6349 129.018 32.41C128.505 33.1813 127.829 33.8288 127.039 34.3063C126.237 34.7949 125.343 35.1488 124.358 35.3679C123.372 35.587 122.412 35.6965 121.476 35.6965C118.436 35.6965 116.105 35.014 114.485 33.649C112.865 32.2837 112.055 30.1348 112.055 27.2021H111.052C111.052 30.472 111.929 32.8652 113.683 34.3822C115.437 35.8989 118.035 36.6573 121.476 36.6573C122.579 36.6573 123.689 36.5308 124.809 36.278C125.928 36.0252 126.93 35.6125 127.815 35.0392C128.693 34.4741 129.43 33.713 129.97 32.8148C130.522 31.9044 130.797 30.7922 130.797 29.4775C130.797 28.2303 130.555 27.2191 130.071 26.4437C129.586 25.6687 128.952 25.0281 128.166 24.5225C127.381 24.0169 126.496 23.6209 125.51 23.3344C124.519 23.0462 123.525 22.768 122.528 22.4998C121.302 22.1752 120.074 21.855 118.845 21.5394C117.793 21.2696 116.816 20.9494 115.914 20.5786C115.045 20.2077 114.352 19.677 113.834 18.986C113.316 18.295 113.057 17.309 113.057 16.0281C113.057 15.7923 113.124 15.3707 113.257 14.7641C113.391 14.1572 113.709 13.542 114.21 12.9184C114.711 12.2951 115.479 11.7388 116.515 11.2499C117.55 10.7613 118.97 10.5167 120.775 10.5167C122.011 10.5167 123.138 10.6518 124.157 10.9213C125.176 11.1911 126.053 11.6208 126.788 12.2107C127.523 12.8007 128.091 13.5505 128.492 14.4606C128.893 15.371 129.094 16.4833 129.094 17.7979V17.7979ZM152.296 17.7979H153.298C153.298 14.8988 152.463 12.7922 150.793 11.4775C149.122 10.1629 146.85 9.50558 143.977 9.50558C142.374 9.50558 141.02 9.70799 139.918 10.1125C138.815 10.5167 137.913 11.0393 137.212 11.6796C136.51 12.32 136.009 13.028 135.708 13.8033C135.408 14.5787 135.257 15.3204 135.257 16.0281C135.257 17.4437 135.508 18.573 136.009 19.4157C136.51 20.2584 137.296 20.9157 138.364 21.3876C139.1 21.7245 139.935 22.028 140.87 22.298C141.805 22.5675 142.891 22.854 144.127 23.1572C145.23 23.4273 146.316 23.6967 147.385 23.9662C148.454 24.236 149.398 24.5983 150.216 25.0532C151.035 25.5084 151.703 26.0899 152.221 26.7979C152.739 27.5056 152.998 28.4327 152.998 29.5786C152.998 30.6911 152.739 31.6349 152.221 32.41C151.707 33.1812 151.032 33.8288 150.242 34.3063C149.44 34.7949 148.546 35.1488 147.56 35.3679C146.575 35.587 145.614 35.6965 144.679 35.6965C141.638 35.6965 139.308 35.014 137.688 33.649C136.067 32.2837 135.257 30.1348 135.257 27.2021H134.255C134.255 30.472 135.132 32.8652 136.886 34.3822C138.64 35.8989 141.238 36.6573 144.679 36.6573C145.781 36.6573 146.892 36.5308 148.011 36.278C149.13 36.0252 150.133 35.6125 151.018 35.0392C151.896 34.4741 152.633 33.713 153.173 32.8148C153.724 31.9044 154 30.7922 154 29.4775C154 28.2303 153.758 27.2191 153.273 26.4437C152.789 25.6687 152.154 25.0281 151.369 24.5225C150.584 24.0169 149.699 23.6209 148.713 23.3344C147.722 23.0462 146.728 22.768 145.731 22.4998C144.505 22.1752 143.277 21.855 142.048 21.5394C140.995 21.2696 140.018 20.9494 139.116 20.5786C138.247 20.2077 137.554 19.677 137.037 18.986C136.519 18.295 136.26 17.309 136.26 16.0281C136.26 15.7923 136.326 15.3707 136.46 14.7641C136.594 14.1572 136.911 13.542 137.412 12.9184C137.913 12.2951 138.682 11.7388 139.717 11.2499C140.753 10.7613 142.173 10.5167 143.977 10.5167C145.214 10.5167 146.341 10.6518 147.36 10.9213C148.379 11.1911 149.256 11.6208 149.991 12.2107C150.726 12.8007 151.294 13.5505 151.695 14.4606C152.096 15.371 152.296 16.4833 152.296 17.7979H152.296Z" fill="white"/>
</svg>
