<svg width="287" height="103" viewBox="0 0 287 103" fill="none" xmlns="http://www.w3.org/2000/svg">
<path d="M45.4102 21.0938H14.4043V36.8164H42.627V49.5117H14.4043V81.2988H0V8.39844H45.4102V21.0938Z" fill="black" fill-opacity="0.1"/>
<path d="M62.1582 26.6113H90.4785V70.3125H108.252V81.2988H58.3496V70.3125H76.1719V37.5977H62.1582V26.6113ZM76.1719 0H90.4785V16.6992H76.1719V0Z" fill="black" fill-opacity="0.1"/>
<path d="M150.83 53.0762C150.83 48.1934 149.902 44.2871 148.047 41.3574C146.191 38.3952 143.75 36.9141 140.723 36.9141C137.728 36.9141 135.303 38.3789 133.447 41.3086C131.624 44.2383 130.713 48.1608 130.713 53.0762C130.713 58.0241 131.624 61.9629 133.447 64.8926C135.303 67.8223 137.728 69.2871 140.723 69.2871C143.75 69.2871 146.191 67.8223 148.047 64.8926C149.902 61.9303 150.83 57.9915 150.83 53.0762ZM165.137 77.1973C165.137 85.9538 163.151 92.2689 159.18 96.1426C155.241 100.049 148.828 102.002 139.941 102.002C136.947 102.002 133.984 101.774 131.055 101.318C128.125 100.895 125.146 100.228 122.119 99.3164V86.1816C124.821 87.679 127.572 88.7858 130.371 89.502C133.171 90.2181 136.051 90.5762 139.014 90.5762C143.05 90.5762 146.029 89.6159 147.949 87.6953C149.87 85.8073 150.83 82.8451 150.83 78.8086V72.9004C149.43 75.5046 147.575 77.4414 145.264 78.7109C142.952 79.9805 140.137 80.6152 136.816 80.6152C130.566 80.6152 125.602 78.1738 121.924 73.291C118.245 68.4082 116.406 61.7839 116.406 53.418C116.406 44.7591 118.245 37.8906 121.924 32.8125C125.602 27.7344 130.534 25.1953 136.719 25.1953C139.844 25.1953 142.627 25.9277 145.068 27.3926C147.51 28.8574 149.43 30.9245 150.83 33.5938V26.6113H165.137V77.1973Z" fill="black" fill-opacity="0.1"/>
<path d="M205.566 32.0801C206.641 29.7689 208.008 28.0599 209.668 26.9531C211.328 25.8464 213.363 25.293 215.771 25.293C220.492 25.293 223.747 26.9206 225.537 30.1758C227.36 33.431 228.271 40.2018 228.271 50.4883V81.2988H216.553V46.1914C216.553 42.1224 216.243 39.4043 215.625 38.0371C215.007 36.6699 213.883 35.9863 212.256 35.9863C210.628 35.9863 209.489 36.6862 208.838 38.0859C208.187 39.4857 207.861 42.1875 207.861 46.1914V81.2988H196.289V46.1914C196.289 42.1875 195.964 39.4857 195.312 38.0859C194.661 36.6862 193.522 35.9863 191.895 35.9863C190.267 35.9863 189.144 36.6699 188.525 38.0371C187.907 39.4043 187.598 42.1224 187.598 46.1914V81.2988H175.879V26.6113H186.279V32.2754C187.093 30.127 188.395 28.4342 190.186 27.1973C191.976 25.9277 193.978 25.293 196.191 25.293C198.405 25.293 200.423 25.9603 202.246 27.2949C204.069 28.597 205.176 30.1921 205.566 32.0801Z" fill="black" fill-opacity="0.1"/>
<path d="M266.309 55.6152C260.97 55.6152 257.243 56.2988 255.127 57.666C253.011 59.0332 251.953 61.377 251.953 64.6973C251.953 67.1712 252.686 69.1406 254.15 70.6055C255.615 72.0703 257.601 72.8027 260.107 72.8027C263.883 72.8027 266.813 71.3867 268.896 68.5547C270.98 65.6901 272.021 61.7025 272.021 56.5918V55.6152H266.309ZM286.23 50.0977V81.2988H272.021V75.1953C270.296 77.6042 268.083 79.4596 265.381 80.7617C262.679 82.0638 259.701 82.7148 256.445 82.7148C250.228 82.7148 245.378 81.071 241.895 77.7832C238.444 74.4954 236.719 69.9056 236.719 64.0137C236.719 57.6335 238.786 52.9297 242.92 49.9023C247.054 46.8424 253.451 45.3125 262.109 45.3125H272.021V42.9199C272.021 40.6087 271.175 38.8672 269.482 37.6953C267.822 36.4909 265.365 35.8887 262.109 35.8887C258.691 35.8887 255.371 36.3281 252.148 37.207C248.958 38.0534 245.622 39.4206 242.139 41.3086V29.1016C245.296 27.7995 248.503 26.8392 251.758 26.2207C255.013 25.6022 258.464 25.293 262.109 25.293C270.996 25.293 277.23 27.0996 280.811 30.7129C284.424 34.3262 286.23 40.7878 286.23 50.0977Z" fill="black" fill-opacity="0.1"/>
</svg>
