<svg width="46" height="45" viewBox="0 0 46 45" fill="none" xmlns="http://www.w3.org/2000/svg">
<path d="M22.9869 0.00197901H23.1607C27.3524 0.00197901 31.2748 1.15083 34.6345 3.15055L34.5317 3.09246C37.9696 5.09138 40.8346 7.94594 42.8496 11.38L42.9076 11.4887C44.9448 14.9966 46.0122 18.9856 45.9999 23.0447C45.9999 33.1763 39.488 41.7862 30.4316 44.8935L30.269 44.9423C30.0663 45.0035 29.8522 45.0162 29.6437 44.9795C29.4353 44.9427 29.2383 44.8574 29.0687 44.7305L29.0724 44.7324C28.9499 44.6225 28.8519 44.4879 28.7849 44.3374C28.7178 44.1868 28.6833 44.0238 28.6836 43.859V43.8328V43.8346L28.6985 41.5369C28.7085 40.0651 28.7135 38.7195 28.7135 37.5C28.7828 36.7185 28.6791 35.9313 28.4099 35.1946C28.1407 34.4579 27.7126 33.7899 27.1561 33.2382C28.2403 33.1339 29.3143 32.9427 30.3681 32.6666L30.226 32.6984C31.2313 32.4224 32.1971 32.018 33.0996 31.4952L33.0416 31.5271C33.9627 31.0223 34.7818 30.3498 35.4572 29.5442L35.4684 29.5311C36.1821 28.6125 36.7151 27.5663 37.0388 26.4481L37.0557 26.3825C37.4684 24.9954 37.6756 23.5551 37.6708 22.1076L37.6689 21.8527V21.8658L37.6708 21.7309C37.6736 19.4846 36.8256 17.321 35.2982 15.6774L35.3039 15.683C35.6179 14.8584 35.7993 13.9063 35.7993 12.9111C35.8008 11.7359 35.5429 10.5749 35.044 9.51143L35.0645 9.56015C34.233 9.40519 33.3738 9.5242 32.6154 9.89938L32.6378 9.89C31.6536 10.2504 30.7069 10.7061 29.8109 11.2506L29.882 11.2094L28.7434 11.9291C27.0196 11.4343 25.0397 11.1494 22.9943 11.1494C20.949 11.1494 18.9691 11.4343 17.092 11.9666L17.2434 11.9291C16.9243 11.7092 16.4999 11.4387 15.9702 11.1176C15.2073 10.685 14.4122 10.3122 13.5921 10.0025L13.4687 9.96122C12.6798 9.54963 11.7781 9.40874 10.9017 9.56015L10.926 9.55641C10.4383 10.6057 10.1874 11.7498 10.1912 12.9074C10.1912 13.9026 10.3726 14.8565 10.7054 15.7355L10.6867 15.6811C9.12824 17.3596 8.28037 19.5788 8.32163 21.8715V21.864L8.31977 22.1076C8.31977 23.6238 8.54412 25.0894 8.96291 26.4688L8.93487 26.3619C9.28822 27.567 9.8248 28.6147 10.524 29.5349L10.5072 29.5105C11.1626 30.3196 11.9667 30.9953 12.876 31.5009L12.9171 31.5215C13.7248 31.9938 14.6615 32.3929 15.6468 32.6722L15.7328 32.6928C16.604 32.9271 17.6473 33.1182 18.7148 33.2251L18.8008 33.2326C17.995 34.0347 17.4584 35.1067 17.335 36.3024L17.3332 36.3249C16.917 36.5247 16.4781 36.6732 16.0263 36.7672L15.987 36.7747C15.5084 36.8703 14.9606 36.9247 14.3979 36.9247H14.2745H14.2801C13.5721 36.9112 12.8847 36.6838 12.3076 36.2724L12.3189 36.2799C11.6324 35.8025 11.0681 35.1693 10.6717 34.432L10.6586 34.4039C10.2989 33.7882 9.80872 33.2592 9.22279 32.854L9.20596 32.8427C8.77086 32.5168 8.2788 32.2753 7.75514 32.1306L7.72523 32.1231L7.12695 32.0331C6.82669 32.0109 6.52537 32.0584 6.24637 32.1718L6.25946 32.1662C6.09992 32.2561 6.05006 32.3711 6.10989 32.511C6.1828 32.6722 6.27254 32.8109 6.38098 32.9327L6.37911 32.9308C6.49316 33.0658 6.62216 33.1838 6.76238 33.2869L6.76799 33.2907L6.97739 33.4406C7.50649 33.718 7.9421 34.1041 8.27303 34.5707L8.2805 34.582C8.6376 35.0261 8.95169 35.5284 9.20409 36.0663L9.22279 36.1113L9.52193 36.801C9.77432 37.5544 10.2324 38.1841 10.8307 38.6395L10.84 38.647C11.4009 39.0855 12.0777 39.4004 12.8162 39.5428L12.8461 39.5466C13.4631 39.6665 14.181 39.7415 14.9139 39.7565H14.927C15.0111 39.7602 15.1083 39.7602 15.2074 39.7602C15.6954 39.7602 16.174 39.7209 16.6414 39.644L16.5909 39.6515L17.2789 39.5316C17.2789 40.2925 17.2839 41.1784 17.2939 42.1891C17.3039 43.1999 17.3089 43.7453 17.3089 43.8253V43.8515C17.3089 44.1982 17.1593 44.5093 16.92 44.7249H16.9181C16.748 44.853 16.5499 44.9387 16.3402 44.9749C16.1305 45.011 15.9153 44.9967 15.7122 44.9329L15.7216 44.9348C6.50624 41.7693 0 33.1595 0 23.0259C0 18.7754 1.1442 14.7928 3.14281 11.3706L3.08299 11.4793C5.07707 8.03304 7.92471 5.16105 11.3504 3.14118L11.4588 3.08309C14.899 1.05273 18.8209 -0.0121659 22.813 0.000104859H22.9962H22.9869V0.00197901ZM8.70304 33.1108C8.76286 32.9708 8.69306 32.8509 8.49364 32.7509C8.29421 32.6909 8.16459 32.7109 8.10476 32.8109C8.04493 32.9508 8.11473 33.0708 8.31416 33.1707C8.49364 33.2907 8.62327 33.2707 8.70304 33.1108ZM9.63223 34.1322C9.77183 34.0322 9.75189 33.8723 9.5724 33.6524C9.37298 33.4725 9.21344 33.4425 9.09378 33.5624C8.95419 33.6624 8.97413 33.8223 9.15361 34.0422C9.35179 34.2384 9.51133 34.2677 9.63223 34.1303V34.1322ZM10.5296 35.4816C10.7091 35.3416 10.7091 35.1517 10.5296 34.9118C10.3701 34.6519 10.2006 34.592 10.0211 34.7319C9.84163 34.8318 9.84163 35.0118 10.0211 35.2716C10.2006 35.5315 10.3701 35.6015 10.5296 35.4816ZM11.786 36.7429C11.9456 36.5829 11.9057 36.393 11.6664 36.1731C11.4271 35.9332 11.2276 35.9032 11.0681 36.0832C10.8886 36.2431 10.9285 36.433 11.1877 36.6529C11.4271 36.8928 11.6265 36.9203 11.786 36.7354V36.7429ZM13.493 37.4925C13.5528 37.2726 13.4232 37.1127 13.1041 37.0127C12.805 36.9328 12.6155 37.0027 12.5357 37.2226C12.456 37.4425 12.5856 37.5925 12.9246 37.6724C13.2238 37.7936 13.4132 37.7337 13.493 37.4925V37.4925ZM15.3794 37.6424C15.3794 37.3826 15.2099 37.2726 14.8709 37.3126C14.5518 37.3126 14.3923 37.4225 14.3923 37.6424C14.3923 37.9023 14.5618 38.0123 14.9008 37.9723C15.2199 37.9736 15.3794 37.8642 15.3794 37.6443V37.6424ZM17.1163 37.3426C17.0764 37.1227 16.8969 37.0327 16.5778 37.0727C16.2588 37.1327 16.1192 37.2826 16.159 37.5225C16.1989 37.7624 16.3784 37.8424 16.6975 37.7624C17.0166 37.6824 17.1568 37.5425 17.1182 37.3426H17.1163Z" fill="white"/>
</svg>
