<svg width="45" height="45" viewBox="0 0 49 45" fill="none" xmlns="http://www.w3.org/2000/svg">
<path d="M47.0074 0L26.4111 15.2398L30.2411 6.25856L47.0074 0Z" fill="#E17726"/>
<path d="M1.28081 0.018L18.0022 6.25969L21.639 15.3587L1.28081 0.018ZM38.7187 32.4109L47.8221 32.5841L44.6406 43.392L33.5325 40.3337L38.7187 32.4109ZM9.52106 32.4109L14.688 40.3337L3.59868 43.3922L0.436495 32.5841L9.52106 32.4109Z" fill="#E27625"/>
<path d="M21.1446 13.041L21.5166 25.0566L10.3845 24.5501L13.551 19.773L13.5911 19.7271L21.1446 13.041ZM26.9801 12.9069L34.6489 19.7274L34.6886 19.7732L37.8551 24.5503L26.7255 25.0566L26.9801 12.9069ZM15.0141 32.4458L21.0924 37.1818L14.0316 40.5908L15.0141 32.4458ZM33.2271 32.445L34.1891 40.5909L27.1479 37.1814L33.2271 32.445Z" fill="#E27625"/>
<path d="M27.3034 36.7354L34.4484 40.1951L27.8021 43.3538L27.8711 41.2661L27.3034 36.7354ZM20.9346 36.7369L20.3891 41.232L20.4339 43.3513L13.7721 40.1951L20.9346 36.7369Z" fill="#D5BFB2"/>
<path d="M18.8713 26.6248L20.7384 30.5488L14.3816 28.6866L18.8713 26.6248ZM29.3685 26.6252L33.8794 28.6866L27.5017 30.5482L29.3685 26.6252Z" fill="#233447"/>
<path d="M15.4999 32.4056L14.4724 40.8506L8.96493 32.5903L15.4999 32.4056ZM32.7405 32.4058L39.2756 32.5903L33.7476 40.851L32.7405 32.4058ZM38.016 24.0726L33.2601 28.9196L29.5931 27.2439L27.8376 30.9347L26.6867 24.588L38.016 24.0726ZM10.2216 24.0726L21.5531 24.588L20.4021 30.9347L18.6461 27.2445L14.9987 28.9198L10.2216 24.0726Z" fill="#CC6228"/>
<path d="M9.90112 23.0779L15.282 28.5381L15.4684 33.9285L9.90112 23.0779ZM38.3443 23.0681L32.7669 33.9381L32.9769 28.5381L38.3443 23.0681ZM21.2901 23.4105L21.5066 24.7736L22.0417 28.1694L21.6977 38.5991L20.0711 30.2207L20.0706 30.1341L21.2901 23.4105ZM26.9471 23.3916L28.1698 30.1341L28.1692 30.2207L26.5386 38.6201L26.2196 28.1076L26.9471 23.3916Z" fill="#E27525"/>
<path d="M33.4552 28.3211L33.2732 33.0045L27.5968 37.4271L26.4493 36.6163L27.7356 29.991L33.4552 28.3211ZM14.8044 28.3211L20.5042 29.991L21.7905 36.6163L20.643 37.4271L14.9664 33.0041L14.8044 28.3211Z" fill="#F5841F"/>
<path d="M12.6859 39.1609L19.9481 42.6019L19.9174 41.1324L20.5251 40.599H27.7127L28.3423 41.1306L28.2958 42.5989L35.5121 39.1695L32.0006 42.0713L27.7547 44.9874H20.4667L16.2236 42.0592L12.6859 39.1609Z" fill="#C0AC9D"/>
<path d="M26.7832 36.2773L27.81 37.0028L28.4117 41.8035L27.5409 41.0683H20.7017L19.8474 41.8183L20.4294 37.0031L21.4566 36.2773H26.7832Z" fill="#161616"/>
<path d="M45.6476 0.421875L48.12 7.83881L46.5759 15.3383L47.6754 16.1863L46.1876 17.3214L47.3059 18.1851L45.8252 19.5334L46.7342 20.1917L44.3218 23.0091L34.4274 20.1281L34.3417 20.0822L27.2117 14.0676L45.6476 0.421875ZM2.59237 0.421875L21.0285 14.0676L13.8982 20.0822L13.8126 20.1281L3.91818 23.0091L1.50581 20.1917L2.41406 19.5339L0.934308 18.1851L2.05031 17.3224L0.540183 16.1841L1.68112 15.3354L0.119995 7.83919L2.59237 0.421875Z" fill="#763E1A"/>
<path d="M33.9435 19.4981L44.4272 22.5504L47.8331 33.0478H38.8474L32.6561 33.1258L37.1587 24.3493L33.9435 19.4981ZM14.2965 19.4981L11.0807 24.3493L15.5839 33.1258L9.39543 33.0478H0.425808L3.81262 22.5506L14.2965 19.4981ZM30.7545 6.2085L27.8222 14.1283L27.1999 24.8271L26.9617 28.1805L26.9428 36.747H21.297L21.2786 28.1966L21.0397 24.8242L20.4172 14.1283L17.4853 6.2085H30.7545Z" fill="#F5841F"/>
</svg>
