<svg width="45" height="45" viewBox="0 0 45 45" fill="none" xmlns="http://www.w3.org/2000/svg">
<path d="M0 0.563904V44.4361H45V0.563904H0ZM1.87453 2.43843H43.1241V42.5602H1.87453V2.43843ZM10.8759 10.8394C10.8759 10.7142 11.1403 10.62 11.2936 10.62C12.9042 10.5519 14.5162 10.52 16.1283 10.5244C21.3286 10.5244 23.3494 13.3734 23.3494 17.0212C23.3494 21.7898 19.8928 23.8331 15.6586 23.8331C14.9414 23.8331 14.6995 23.7966 14.2017 23.7966V31.0036C14.2017 31.1569 14.1427 31.223 13.9894 31.223H11.0883C10.935 31.223 10.8759 31.1639 10.8759 31.0106V10.8394ZM14.2017 20.8012C14.6334 20.8308 14.978 20.8308 15.7247 20.8308C17.9142 20.8308 19.98 20.0545 19.98 17.0887C19.98 14.708 18.5006 13.5 15.9961 13.5C15.2564 13.5 14.5462 13.5295 14.2017 13.5591V20.8012ZM30.3441 18.5667C28.8577 18.5667 28.3598 19.3134 28.3598 19.9294C28.3598 20.61 28.6973 21.0727 30.6816 22.0978C33.6192 23.5266 34.5488 24.8808 34.5488 26.8945C34.5488 29.8898 32.2566 31.5014 29.1656 31.5014C27.5245 31.5014 26.1267 31.1569 25.3209 30.6956C25.2042 30.6366 25.1747 30.5423 25.1747 30.3877V27.6342C25.1747 27.4514 25.2633 27.3853 25.387 27.4809C26.5093 28.2107 27.8199 28.5977 29.1586 28.5947C30.645 28.5947 31.2609 27.9787 31.2609 27.1378C31.2609 26.4572 30.8292 25.8708 28.9462 24.8822C26.28 23.6081 25.1662 22.3116 25.1662 20.1431C25.1662 17.7258 27.0563 15.7191 30.33 15.7191C31.9416 15.7191 33.0764 15.968 33.6994 16.2394C33.8527 16.335 33.8822 16.4883 33.8822 16.6134V19.1841C33.8822 19.3373 33.7866 19.433 33.6037 19.3669C32.7684 18.8761 31.538 18.5611 30.337 18.5611L30.3441 18.5667Z" fill="white"/>
</svg>
