<svg width="513" height="84" viewBox="0 0 513 84" fill="none" xmlns="http://www.w3.org/2000/svg">
<path d="M33.9099 39.8629C35.3368 40.1811 36.5615 40.8864 37.5841 41.9789C38.6398 43.0393 39.9055 45.1128 41.3812 48.1992L54.1001 74.6484L38.2822 74.3693L29.8193 55.8089C29.5681 55.2835 29.239 54.5614 28.832 53.6427C26.3579 48.0968 23.3795 45.2932 19.897 45.2318L15.3079 45.1508L14.7996 73.9549L0.397507 73.7007L1.68377 0.811684L22.4813 1.1787C31.8549 1.34411 38.5465 3.12261 42.5563 6.5142C46.5987 9.90636 48.5538 15.3454 48.4217 22.8312C48.3332 27.8434 47.0423 31.8089 44.5491 34.7276C42.0558 37.6463 38.5094 39.3581 33.9099 39.8629ZM15.8722 13.1733L15.5215 33.0433L22.3076 33.163C26.2458 33.2325 29.0746 32.5174 30.794 31.0175C32.5466 29.4857 33.4542 26.946 33.5168 23.3983C33.5794 19.8507 32.7779 17.2971 31.1125 15.7375C29.447 14.178 26.629 13.3631 22.6582 13.2931L15.8722 13.1733Z" fill="black" fill-opacity="0.1"/>
<path d="M113.996 73.0194C110.652 74.3278 107.249 75.2933 103.787 75.9159C100.325 76.5385 96.6733 76.8159 92.8327 76.7482C83.687 76.5868 76.7325 74.0222 71.9691 69.0546C67.2389 64.055 64.9551 56.9498 65.1176 47.739C65.275 38.8211 67.7264 31.8158 72.472 26.7229C77.2175 21.6301 83.6099 19.1546 91.649 19.2964C99.7532 19.4395 105.992 21.9588 110.366 26.8544C114.773 31.7181 116.9 38.5112 116.746 47.2338L116.643 53.0435L79.5886 52.3896C79.5453 56.6864 80.7581 59.9146 83.2269 62.0744C85.6956 64.2342 89.4199 65.358 94.3996 65.4459C97.6868 65.5039 100.934 65.0891 104.14 64.2016C107.346 63.314 110.709 61.8757 114.227 59.8867L113.996 73.0194ZM102.431 42.0488C102.432 38.2722 101.506 35.4071 99.6524 33.4535C97.8317 31.468 95.0987 30.443 91.4534 30.3787C88.1662 30.3207 85.5283 31.2834 83.5399 33.2669C81.552 35.2178 80.3466 38.029 79.9237 41.7005L102.431 42.0488Z" fill="black" fill-opacity="0.1"/>
<path d="M161.019 50.8476C155.681 50.7534 151.943 51.3711 149.803 52.7008C147.663 54.0304 146.564 56.3551 146.506 59.6749C146.462 62.1485 147.16 64.1305 148.598 65.621C150.037 67.1114 152.01 67.8788 154.516 67.923C158.291 67.9896 161.245 66.6255 163.378 63.8307C165.512 61.0033 166.624 57.0347 166.714 51.9248L166.731 50.9484L161.019 50.8476ZM181.035 45.6824L180.485 76.8787L166.278 76.628L166.386 70.5254C164.618 72.9035 162.372 74.7196 159.648 75.9738C156.923 77.228 153.934 77.8264 150.679 77.769C144.463 77.6593 139.642 75.9301 136.218 72.5814C132.826 69.2332 131.182 64.6137 131.286 58.7226C131.398 52.3434 133.548 47.6769 137.735 44.7229C141.922 41.7365 148.345 40.3196 157.002 40.4724L166.913 40.6473L166.955 38.2551C166.996 35.9442 166.18 34.188 164.509 32.9865C162.87 31.7529 160.423 31.1075 157.169 31.05C153.751 30.9897 150.424 31.3705 147.186 32.1924C143.981 32.9824 140.621 34.2905 137.105 36.1167L137.321 23.9116C140.501 22.6654 143.724 21.7619 146.989 21.2009C150.255 20.64 153.71 20.3916 157.356 20.456C166.241 20.6128 172.442 22.5291 175.958 26.205C179.507 29.8815 181.199 36.3739 181.035 45.6824Z" fill="black" fill-opacity="0.1"/>
<path d="M244.483 75.2244C242.05 76.5815 239.444 77.5773 236.665 78.212C233.886 78.8792 230.902 79.1846 227.712 79.1284C219.282 78.9796 212.736 76.3246 208.074 71.1634C203.412 66.0022 201.16 58.9302 201.319 49.9472C201.478 40.9317 203.994 33.9274 208.868 28.9345C213.743 23.9091 220.395 21.4707 228.825 21.6195C231.754 21.6712 234.563 22.0626 237.253 22.7938C239.974 23.5255 242.673 24.6312 245.35 26.111L245.119 39.1949C243.067 37.368 240.797 35.9606 238.307 34.9725C235.851 33.9524 233.288 33.4188 230.62 33.3717C225.965 33.2896 222.359 34.7073 219.801 37.6249C217.242 40.5424 215.915 44.7352 215.818 50.2031C215.722 55.671 216.901 59.8916 219.355 62.8651C221.81 65.8385 225.364 67.3663 230.018 67.4485C232.785 67.4973 235.38 67.0873 237.805 66.2185C240.23 65.3171 242.533 63.9415 244.715 62.0917L244.483 75.2244Z" fill="black" fill-opacity="0.1"/>
<path d="M293.804 8.65265L293.53 24.1776L312.228 24.5075L312.034 35.4922L293.336 35.1622L292.879 61.0371C292.836 63.4781 293.391 65.246 294.544 66.3407C295.73 67.4035 297.706 67.9592 300.472 68.0081L311.457 68.2019L311.263 79.1865L299.253 78.9746C291.051 78.8299 285.525 77.43 282.674 74.7752C279.824 72.0877 278.462 67.1964 278.587 60.1012L279.032 34.9098L265.069 34.6634L265.263 23.6788L279.225 23.9252L279.499 8.40023L293.804 8.65265Z" fill="black" fill-opacity="0.1"/>
<path d="M347.359 61.9008L363.616 62.1877L363.3 80.1048L347.043 79.8179L347.359 61.9008Z" fill="black" fill-opacity="0.1"/>
<path d="M396.751 77.0813L397.046 60.3847C399.794 63.2982 402.734 65.5314 405.864 67.0843C409.028 68.6377 412.22 69.4429 415.442 69.4997C419.218 69.5664 422.001 68.6713 423.792 66.8146C425.583 64.9579 426.515 61.9628 426.588 57.8293L427.237 21.0187L409.613 20.7076L409.837 8.01431L441.863 8.57947L440.99 58.0835C440.833 66.9688 438.849 73.2987 435.038 77.0732C431.261 80.8158 425.092 82.6115 416.532 82.4604C413.44 82.4059 410.209 81.9256 406.839 81.0197C403.502 80.1143 400.139 78.8015 396.751 77.0813Z" fill="black" fill-opacity="0.1"/>
<path d="M483.072 50.231C475.863 47.3364 471 44.353 468.482 41.2808C465.965 38.176 464.751 34.0524 464.842 28.91C464.959 22.3029 467.166 17.149 471.464 13.4482C475.761 9.74742 481.604 7.96222 488.992 8.09259C492.345 8.15175 495.69 8.60147 499.029 9.44176C502.368 10.2495 505.668 11.431 508.929 12.9861L508.681 27.0464C505.627 24.8112 502.516 23.0959 499.346 21.9005C496.177 20.705 493.03 20.0798 489.905 20.0246C486.423 19.9632 483.741 20.6158 481.862 21.9826C479.982 23.3494 479.019 25.3347 478.973 27.9384C478.937 29.9563 479.575 31.6443 480.886 33.0023C482.23 34.3283 485.036 35.8266 489.304 37.4972L495.463 39.95C501.283 42.2015 505.545 45.1254 508.249 48.7219C510.953 52.3183 512.257 56.818 512.162 62.2208C512.032 69.5764 509.755 75.0384 505.329 78.6067C500.936 82.143 494.346 83.8336 485.559 83.6785C481.946 83.6148 478.325 83.1114 474.695 82.1683C471.097 81.2583 467.621 79.9272 464.266 78.175L464.529 63.2848C468.321 66.0865 471.995 68.1862 475.552 69.5838C479.141 70.9819 482.693 71.7121 486.208 71.7741C489.756 71.8367 492.52 71.0878 494.501 69.5275C496.483 67.9346 497.499 65.6898 497.55 62.7931C497.589 60.6125 496.971 58.697 495.698 57.0467C494.426 55.3638 492.561 54.0286 490.104 53.0411L483.072 50.231Z" fill="black" fill-opacity="0.1"/>
</svg>
