<svg width="48" height="45" viewBox="0 0 48 45" fill="none" xmlns="http://www.w3.org/2000/svg">
<path d="M32.8371 31.3032C34.5794 31.1228 35.9012 29.6209 35.8411 27.8183C35.7811 26.0159 34.279 24.5739 32.4766 24.5739H32.3565C30.4938 24.634 29.052 26.1961 29.1121 28.0586C29.1722 28.9599 29.5326 29.7409 30.0733 30.2817C28.0306 34.3073 24.9065 37.2513 20.2202 39.7147C17.0359 41.397 13.7315 41.9979 10.4272 41.5774C7.72346 41.2169 5.62063 40.0153 4.29867 38.0324C2.37621 35.0884 2.19602 31.9039 3.81824 28.7196C4.95984 26.4364 6.76205 24.7541 7.90365 23.9129C7.66334 23.1318 7.30279 21.8101 7.1226 20.8488C-1.58914 27.1575 -0.68785 35.6892 1.95572 39.7147C3.9383 42.719 7.96377 44.5815 12.4097 44.5815C13.6113 44.5815 14.8128 44.4613 16.0145 44.161C23.7049 42.6589 29.5328 38.0925 32.8371 31.3032V31.3032ZM43.4114 23.853C38.8452 18.5055 32.1162 15.5615 24.4258 15.5615H23.4646C22.9239 14.48 21.7823 13.7589 20.5206 13.7589H20.4004C18.538 13.8191 17.0962 15.3811 17.1561 17.2439C17.2162 19.0463 18.7182 20.4883 20.5206 20.4883H20.6407C21.9625 20.4282 23.1041 19.587 23.5847 18.4454H24.6661C29.2324 18.4454 33.5581 19.7672 37.4635 22.3508C40.4674 24.3336 42.6304 26.9172 43.8319 30.0414C44.8533 32.5649 44.7931 35.0283 43.7117 37.1313C42.0295 40.3156 39.2058 42.058 35.4807 42.058C33.0775 42.058 30.7944 41.3369 29.5927 40.7962C28.9319 41.397 27.7302 42.3583 26.889 42.9593C29.4727 44.1609 32.1162 44.8218 34.6395 44.8218C40.4073 44.8218 44.6731 41.6374 46.2953 38.4531C48.0376 34.9681 47.9173 28.9599 43.4114 23.853V23.853ZM12.8903 32.3244C12.9505 34.127 14.4524 35.5688 16.2548 35.5688H16.3751C18.2376 35.5089 19.6794 33.9466 19.6193 32.0841C19.5594 30.2815 18.0572 28.8397 16.2548 28.8397H16.1348C16.0145 28.8397 15.8342 28.8397 15.7143 28.8996C13.2509 24.814 12.2295 20.368 12.5901 15.5613C12.8302 11.9564 14.0319 8.83199 16.1348 6.24836C17.877 4.02529 21.2415 2.94381 23.5247 2.88387C29.8932 2.76363 32.5967 10.6945 32.777 13.879C33.5581 14.0592 34.8799 14.4799 35.7811 14.7803C35.06 5.04701 29.052 0 23.2844 0C17.877 0 12.8903 3.90541 10.9076 9.67334C8.14395 17.3639 9.94635 24.7541 13.3108 30.5821C13.0106 31.0026 12.8302 31.6636 12.8903 32.3246V32.3244Z" fill="#764ABC"/>
</svg>
