<svg width="64" height="64" viewBox="0 0 64 64" fill="none" xmlns="http://www.w3.org/2000/svg">
<rect width="64" height="64" rx="11" fill="#635BFF"/>
<path d="M28.8006 23.5837C28.8006 21.6237 30.4149 20.8686 33.003 20.8686C36.772 20.8686 41.5551 22.037 45.3241 24.094V12.2932C41.2175 10.6327 37.1193 10 33.0113 10C22.9659 10 16.2712 15.3078 16.2712 24.1826C16.2712 38.0587 35.0952 35.8091 35.0952 41.7932C35.0952 44.1131 33.1072 44.8597 30.3454 44.8597C26.2472 44.8597 20.9501 43.1458 16.7921 40.861V52.1528C21.0699 54.0208 25.6781 54.9895 30.3371 55C40.6354 55 47.7288 50.5176 47.7288 41.5021C47.7288 26.5462 28.8006 29.2261 28.8006 23.5837V23.5837Z" fill="white"/>
</svg>
