<svg width="595" height="181" viewBox="0 0 595 181" fill="none" xmlns="http://www.w3.org/2000/svg">
<path d="M45.8862 165.432L31.713 168.002L20.9548 108.666L2.74578 111.968L0.498312 99.5724L51.0895 90.3996L53.3369 102.795L35.128 106.097L45.8862 165.432Z" fill="black" fill-opacity="0.1"/>
<path d="M103.681 160.958C102.709 166.361 101.103 170.457 98.8623 173.245C96.6598 176.059 93.6688 177.809 89.8893 178.494L78.2625 180.602L76.3199 169.888L82.0372 168.852C84.9199 168.329 86.9439 167.449 88.1091 166.213C89.2801 165.008 90.232 162.503 90.9646 158.698L91.4989 155.623L61.5454 107.014L76.3432 104.331L94.9757 137.029L100.414 99.9664L115.211 97.2833L103.681 160.958Z" fill="black" fill-opacity="0.1"/>
<path d="M147.614 139.147L152.701 167.205L138.672 169.749L125.205 95.4714L139.234 92.9278L140.697 100.999C141.607 97.6253 143.121 94.9357 145.239 92.9307C147.357 90.9257 150.033 89.6299 153.268 89.0434C159.418 87.9283 164.637 89.5293 168.927 93.8463C173.216 98.1634 176.174 104.806 177.8 113.774C179.45 122.871 178.986 130.167 176.409 135.663C173.865 141.153 169.406 144.475 163.032 145.631C160.149 146.154 157.421 145.888 154.848 144.832C152.301 143.739 149.889 141.844 147.614 139.147ZM163.706 116.231C162.765 111.042 161.163 107.131 158.899 104.498C156.635 101.865 153.981 100.824 150.939 101.376C147.896 101.927 145.761 103.836 144.533 107.102C143.306 110.368 143.163 114.596 144.103 119.785C145.044 124.974 146.663 128.882 148.958 131.509C151.254 134.136 153.924 135.174 156.967 134.623C160.009 134.071 162.129 132.165 163.324 128.904C164.519 125.644 164.646 121.42 163.706 116.231Z" fill="black" fill-opacity="0.1"/>
<path d="M239.508 127.597C236.485 129.534 233.337 131.147 230.064 132.435C226.79 133.724 223.264 134.71 219.484 135.396C210.484 137.027 203.162 135.874 197.519 131.935C191.901 127.958 188.271 121.437 186.627 112.372C185.036 103.596 186.069 96.2466 189.726 90.3234C193.383 84.4002 199.167 80.7213 207.078 79.2869C215.054 77.8409 221.665 79.0902 226.913 83.035C232.186 86.942 235.602 93.1875 237.158 101.772L238.195 107.489L201.729 114.101C202.527 118.323 204.348 121.251 207.192 122.886C210.036 124.521 213.908 124.894 218.809 124.005C222.044 123.419 225.146 122.376 228.117 120.878C231.088 119.38 234.103 117.312 237.165 114.673L239.508 127.597ZM222.105 99.4888C221.367 95.7849 219.898 93.1565 217.698 91.6036C215.524 90.0128 212.643 89.5426 209.056 90.1931C205.821 90.7796 203.422 92.24 201.86 94.5743C200.293 96.8766 199.661 99.8694 199.965 103.553L222.105 99.4888Z" fill="black" fill-opacity="0.1"/>
<path d="M284.49 68.3279L286.72 80.6274C283.824 79.4322 280.891 78.6738 277.921 78.352C274.978 77.9925 272.097 78.0682 269.278 78.5793C266.139 79.1484 263.853 80.0426 262.42 81.2618C260.981 82.449 260.424 83.9395 260.749 85.7331C261.214 88.2955 265.019 89.7561 272.163 90.1148L272.718 90.1631L276.928 90.3923C282.273 90.6802 286.378 91.9706 289.242 94.2634C292.132 96.5183 293.995 99.952 294.831 104.564C295.836 110.105 294.765 114.6 291.619 118.049C288.499 121.46 283.288 123.827 275.985 125.151C272.75 125.738 269.383 126.051 265.883 126.09C262.389 126.161 258.795 125.952 255.1 125.464L252.87 113.165C256.297 114.363 259.696 115.136 263.067 115.484C266.47 115.827 269.677 115.725 272.688 115.179C275.987 114.581 278.399 113.648 279.922 112.379C281.445 111.11 282.041 109.563 281.71 107.737C281.385 105.944 280.527 104.677 279.136 103.936C277.776 103.19 274.74 102.682 270.026 102.412L265.978 102.253C260.376 102.011 256.107 100.817 253.17 98.6698C250.233 96.5226 248.37 93.2709 247.58 88.9148C246.64 83.726 247.782 79.3505 251.006 75.7884C254.231 72.2262 259.239 69.8295 266.029 68.5984C269.072 68.0467 272.145 67.7541 275.249 67.7207C278.379 67.6494 281.459 67.8518 284.49 68.3279Z" fill="black" fill-opacity="0.1"/>
<path d="M356.095 106.359C353.975 108.166 351.614 109.652 349.014 110.819C346.419 112.017 343.552 112.901 340.413 113.47C332.117 114.974 325.178 113.651 319.596 109.503C314.014 105.354 310.421 98.8594 308.818 90.0192C307.21 81.1469 308.307 73.7856 312.109 67.9353C315.906 62.0529 321.952 58.3596 330.248 56.8555C333.13 56.3328 335.962 56.1668 338.742 56.3574C341.555 56.5422 344.418 57.0983 347.332 58.0256L349.667 70.9016C347.297 69.5116 344.795 68.5758 342.16 68.0941C339.552 67.5746 336.935 67.5529 334.308 68.0291C329.728 68.8596 326.469 70.9557 324.531 74.3176C322.593 77.6795 322.112 82.051 323.088 87.432C324.063 92.813 326.046 96.7213 329.035 99.1568C332.024 101.592 335.808 102.395 340.388 101.564C343.111 101.071 345.576 100.161 347.784 98.834C349.985 97.4754 351.975 95.6756 353.752 93.4346L356.095 106.359Z" fill="black" fill-opacity="0.1"/>
<path d="M413.138 58.5994C411.346 57.4688 409.344 56.7399 407.134 56.4128C404.957 56.0798 402.635 56.1369 400.169 56.584C397.19 57.1241 394.675 58.1259 392.625 59.5894C390.6 61.0151 389.16 62.8312 388.303 65.0377C387.755 66.3942 387.477 67.9663 387.471 69.754C387.496 71.5359 387.828 74.1885 388.467 77.7118L392.962 102.503L378.885 105.055L369.128 51.2451L383.205 48.6927L384.721 57.0525C385.541 53.7279 387.225 50.9744 389.774 48.792C392.317 46.5776 395.494 45.1248 399.305 44.4337C401.227 44.0853 403.144 43.9858 405.057 44.1352C406.996 44.2468 408.88 44.6 410.708 45.1949L413.138 58.5994Z" fill="black" fill-opacity="0.1"/>
<path d="M425.052 41.1053L452.918 36.0529L460.715 79.053L478.203 75.8821L480.163 86.6922L431.061 95.595L429.101 84.7849L446.638 81.6053L440.801 49.4153L427.012 51.9154L425.052 41.1053ZM434.094 12.4208L448.171 9.86847L451.15 26.2998L437.073 28.8521L434.094 12.4208Z" fill="black" fill-opacity="0.1"/>
<path d="M503.338 74.6497L508.425 102.708L494.396 105.252L480.928 30.9743L494.958 28.4307L496.421 36.5022C497.331 33.1281 498.845 30.4386 500.963 28.4336C503.08 26.4286 505.757 25.1328 508.992 24.5462C515.141 23.4312 520.361 25.0322 524.65 29.3492C528.94 33.6662 531.898 40.3089 533.524 49.2773C535.173 58.3738 534.71 65.6699 532.133 71.1656C529.589 76.6556 525.129 79.9784 518.755 81.134C515.873 81.6567 513.145 81.3904 510.571 80.3352C508.024 79.2421 505.613 77.347 503.338 74.6497ZM519.429 51.7336C518.489 46.5447 516.886 42.6337 514.622 40.0006C512.358 37.3674 509.705 36.3267 506.662 36.8784C503.619 37.4301 501.484 39.339 500.257 42.6052C499.03 45.8714 498.886 50.0989 499.827 55.2877C500.768 60.4765 502.386 64.3846 504.682 67.012C506.978 69.6393 509.647 70.6771 512.69 70.1254C515.733 69.5737 517.852 67.6677 519.048 64.4073C520.243 61.147 520.37 56.9224 519.429 51.7336Z" fill="black" fill-opacity="0.1"/>
<path d="M563.39 0.242531L566.16 15.5208L584.561 12.1844L586.521 22.9945L568.12 26.3309L572.737 51.7946C573.172 54.1968 574.062 55.8219 575.407 56.6698C576.778 57.4799 578.825 57.6381 581.547 57.1445L592.358 55.1845L594.318 65.9946L582.498 68.1375C574.427 69.601 568.734 69.31 565.418 67.2644C562.097 65.1869 559.804 60.6568 558.538 53.6743L554.043 28.8832L540.302 31.3746L538.342 20.5645L552.083 18.0731L549.313 2.79489L563.39 0.242531Z" fill="black" fill-opacity="0.1"/>
</svg>
