<svg width="169" height="94" viewBox="0 0 169 94" fill="none" xmlns="http://www.w3.org/2000/svg">
<path d="M41.357 74.2906C38.9239 75.0943 36.4238 75.5908 33.8567 75.7803C31.2896 75.9697 28.6394 75.8495 25.9061 75.4196C16.1947 73.8923 9.28574 69.5271 5.17917 62.3238C1.0726 55.1205 -0.0299345 45.4733 1.87155 33.3823C3.7781 21.2592 7.79103 12.4001 13.9103 6.80495C20.0297 1.20982 27.945 -0.824111 37.6564 0.703148C40.3897 1.13301 42.965 1.83458 45.3822 2.80786C47.7994 3.78114 50.0103 5.01854 52.0149 6.52008L49.5268 22.3412C47.4369 19.7059 45.3152 17.6917 43.1617 16.2986C41.0454 14.8783 38.7654 13.976 36.3214 13.5917C31.112 12.7724 26.8466 14.2271 23.5252 17.9555C20.2411 21.6569 17.9592 27.5755 16.6798 35.7112C15.4054 43.8147 15.7604 50.1479 17.7449 54.7108C19.7666 59.2467 23.3822 61.9242 28.5916 62.7435C31.0355 63.1278 33.48 62.985 35.9249 62.315C38.4071 61.618 41.0472 60.3361 43.8451 58.4695L41.357 74.2906Z" fill="black" fill-opacity="0.1"/>
<path d="M77.9794 49.8C71.2383 45.9389 66.8327 42.3133 64.7626 38.9232C62.6976 35.501 62.0646 31.2494 62.8636 26.1687C63.8902 19.6408 66.787 14.8405 71.5541 11.7677C76.3211 8.69498 82.3544 7.73258 89.654 8.88056C92.9662 9.40144 96.2176 10.3082 99.4084 11.6009C102.604 12.8614 105.71 14.4866 108.725 16.4766L106.54 30.3683C103.824 27.7334 100.979 25.6054 98.0046 23.9843C95.0303 22.3632 91.9996 21.3099 88.9125 20.8244C85.4717 20.2833 82.7261 20.56 80.6757 21.6545C78.6253 22.749 77.3978 24.5825 76.9933 27.1551C76.6797 29.1488 77.0785 30.9085 78.1896 32.4343C79.3379 33.933 81.9105 35.8039 85.9074 38.0472L91.6692 41.3258C97.1236 44.3585 100.942 47.8423 103.124 51.7772C105.306 55.7122 105.977 60.3487 105.138 65.6867C103.995 72.9542 100.986 78.0498 96.1104 80.9738C91.2722 83.8706 84.5119 84.6363 75.8296 83.2708C72.2602 82.7095 68.743 81.7115 65.2779 80.2769C61.84 78.8794 58.5804 77.0817 55.499 74.8836L57.8127 60.1718C61.1824 63.4697 64.5322 66.056 67.8621 67.9308C71.2242 69.8105 74.6417 71.0235 78.1146 71.5697C81.6197 72.1209 84.4609 71.7604 86.6381 70.4881C88.8204 69.1837 90.1365 67.1005 90.5866 64.2386C90.9255 62.0841 90.5782 60.1018 89.5447 58.2916C88.5164 56.4493 86.8536 54.8698 84.5563 53.5529L77.9794 49.8Z" fill="black" fill-opacity="0.1"/>
<path d="M137.502 59.1608C130.761 55.2997 126.355 51.6741 124.285 48.284C122.22 44.8617 121.587 40.6102 122.386 35.5294C123.413 29.0016 126.309 24.2013 131.076 21.1285C135.843 18.0558 141.877 17.0934 149.176 18.2413C152.488 18.7622 155.74 19.669 158.931 20.9616C162.127 22.2221 165.232 23.8474 168.247 25.8374L166.063 39.7291C163.347 37.0942 160.501 34.9662 157.527 33.3451C154.553 31.724 151.522 30.6707 148.435 30.1852C144.994 29.6441 142.248 29.9208 140.198 31.0153C138.148 32.1098 136.92 33.9433 136.516 36.5158C136.202 38.5096 136.601 40.2693 137.712 41.7951C138.86 43.2938 141.433 45.1647 145.43 47.4079L151.191 50.6866C156.646 53.7193 160.464 57.2031 162.646 61.138C164.828 65.073 165.5 69.7095 164.66 75.0475C163.517 82.3149 160.508 87.4106 155.633 90.3345C150.795 93.2313 144.034 93.997 135.352 92.6316C131.783 92.0703 128.265 91.0723 124.8 89.6376C121.362 88.2402 118.103 86.4425 115.021 84.2444L117.335 69.5326C120.705 72.8305 124.055 75.4168 127.384 77.2915C130.747 79.1713 134.164 80.3843 137.637 80.9305C141.142 81.4817 143.983 81.1212 146.16 79.8489C148.343 78.5445 149.659 76.4613 150.109 73.5994C150.448 71.4449 150.1 69.4625 149.067 67.6524C148.039 65.8101 146.376 64.2305 144.079 62.9136L137.502 59.1608Z" fill="black" fill-opacity="0.1"/>
</svg>
