<svg width="72" height="45" viewBox="0 0 72 45" fill="none" xmlns="http://www.w3.org/2000/svg">
<path d="M71.1155 38.5386C33.938 43.3972 7.40249 49.2331 7.00999 25.2795C7.00999 25.2795 7.8211 15.9984 19.205 15.4139C19.205 15.4139 19.5886 7.17058 28.2855 6.23724C32.9611 5.73113 38.2733 10.5464 38.8492 15.6145C38.8492 15.6145 50.3547 13.4861 50.8519 24.7039C51.0264 28.6117 50.1453 35.2586 39.0497 34.9706C39.0497 34.9706 32.6297 34.0984 31.7572 24.1717C29.9517 43.3884 57.7344 42.272 58.1358 24.8172C58.3103 17.2717 53.4775 9.50835 42.5914 10.965C36.6247 -4.0472 20.74 -3.18359 14.8258 10.7384C6.37304 10.7384 -0.0905671 17.2456 0.00554403 25.742C0.328322 53.0886 38.3867 44.8453 71.1155 38.5386Z" fill="#24339B"/>
</svg>
