<svg width="45" height="45" viewBox="0 0 34 45" fill="none" xmlns="http://www.w3.org/2000/svg">
<path d="M0.88475 36.2818L1.15693 35.9008L14.0292 11.4759L14.0564 11.2173L8.38219 0.558699C7.90655 -0.334122 6.56808 -0.108352 6.41219 0.891135L0.88475 36.2818Z" fill="#FFC24A"/>
<path d="M18.1931 19.2795L22.4181 14.9525L18.1918 6.8846C17.7906 6.12088 16.6705 6.11857 16.2736 6.8846L14.0155 11.1906V11.5573L18.1931 19.2795Z" fill="#F4BD62"/>
<path d="M0.88475 36.2818L1.00808 36.1577L1.45629 35.9756L17.9277 19.5654L18.1364 18.9973L14.0274 11.1673L0.88475 36.2818Z" fill="#F6820C"/>
<path d="M18.7208 44.5578L33.6278 36.2441L29.3709 10.0268C29.2377 9.20652 28.2314 8.88229 27.6442 9.47037L0.88475 36.2818L15.7063 44.5572C16.167 44.8144 16.6858 44.9495 17.2135 44.9496C17.7411 44.9497 18.26 44.8148 18.7208 44.5578Z" fill="#FDE068"/>
<path d="M33.4942 36.1743L29.2696 10.1561C29.1376 9.34203 28.3006 9.00524 27.718 9.58895L1.05013 36.2308L15.709 44.4241C16.1662 44.6793 16.681 44.8134 17.2047 44.8136C17.7283 44.8137 18.2432 44.6799 18.7005 44.4249L33.4942 36.1743Z" fill="#FCCA3F"/>
<path d="M18.7206 44.3128C18.2599 44.5698 17.741 44.7046 17.2134 44.7045C16.6858 44.7044 16.167 44.5694 15.7063 44.3122L1.00411 36.1558L0.88475 36.2818L15.7063 44.5572C16.167 44.8144 16.6858 44.9495 17.2135 44.9496C17.7411 44.9497 18.26 44.8148 18.7208 44.5578L33.6278 36.2441L33.5913 36.0195L18.7206 44.3128Z" fill="#EEAB37"/>
</svg>
