<svg width="38" height="45" viewBox="0 0 28 32" fill="none" xmlns="http://www.w3.org/2000/svg">
<path d="M15.964 31.932C15.547 31.859 15.115 31.661 14.87 31.442C14.7037 31.2675 14.6088 31.037 14.604 30.796C14.604 30.551 14.729 30.207 14.927 29.864C15.047 29.671 15.141 29.463 15.208 29.244C15.25 29.093 15.338 28.848 15.406 28.692L15.526 28.406L15.557 26.495C15.573 25.438 15.604 24.459 15.63 24.307C15.698 23.869 15.812 23.442 15.963 23.026L16.078 22.75L15.911 22.651C15.76 22.557 15.635 22.427 15.14 21.838C14.531 21.119 13.729 20.723 12.593 20.588C12.223 20.552 11.848 20.525 11.473 20.51C9.80601 20.432 8.85301 20.083 7.99401 19.239C7.35301 18.609 7.02001 17.874 6.88501 16.791C6.70301 15.327 6.50001 14.577 6.12501 13.968C6.03258 13.8176 5.92611 13.6763 5.80701 13.546L5.65601 13.395L5.32301 13.609C5.14101 13.729 4.88501 13.88 4.76001 13.948C4.34301 14.177 3.94701 14.432 3.56701 14.708C2.63501 15.385 1.61901 16.234 1.06201 16.791C0.81201 17.041 0.68201 17.15 0.62401 17.14C0.24401 17.083 0.53501 15.437 1.15501 14.197C1.94701 12.598 3.28001 11.124 4.82201 10.129C6.08801 9.311 8.13501 8.186 9.08201 7.79C10.764 7.087 12.941 6.326 14.431 5.92C14.744 5.831 14.936 5.753 15.066 5.665C15.358 5.462 15.644 5.363 15.972 5.358C16.248 5.353 16.274 5.348 16.54 5.17C16.853 4.967 16.946 4.956 17.259 5.066L17.462 5.139L17.712 4.967L17.962 4.8L18.321 4.805C18.597 4.81 18.722 4.8 18.842 4.748C18.993 4.68 18.998 4.67 19.04 4.42C19.134 3.878 19.144 3.607 19.087 3.279C19.014 2.847 19.004 1.17 19.077 0.840997C19.155 0.486997 19.207 0.413997 19.473 0.283997C19.869 0.0909966 20.166 0.0339966 20.848 0.0339966C21.681 0.0339966 22.103 0.148997 22.416 0.450997C22.697 0.721997 22.744 1.357 22.598 2.847C22.509 3.706 22.499 3.946 22.525 4.508C22.535 4.867 22.561 5.206 22.572 5.253C22.593 5.342 22.614 5.347 22.916 5.352C23.213 5.357 23.265 5.373 23.546 5.519C23.817 5.66 24.02 5.832 24.062 5.957C24.067 5.983 24.114 5.983 24.197 5.957C24.358 5.91 24.499 5.962 24.614 6.103C24.682 6.192 24.723 6.207 24.88 6.207C25.094 6.207 25.172 6.259 25.349 6.52C25.4318 6.63714 25.5453 6.72918 25.677 6.786C25.969 6.932 26.365 7.338 26.516 7.661C26.75 8.14 26.797 8.697 26.651 9.197C26.599 9.385 26.599 9.39 26.708 9.572C26.937 9.963 27.021 10.442 26.927 10.848L26.875 11.088L27.031 11.244C27.807 12.02 27.692 13.286 26.745 14.416C26.6392 14.5451 26.5498 14.6868 26.479 14.838C26.297 15.322 26.088 15.661 25.818 15.942L25.542 16.223H25.261C24.98 16.223 24.584 16.129 24.344 16.004C24.245 15.952 24.24 15.952 24.261 16.014C24.324 16.243 24.48 17.175 24.532 17.691C24.615 18.483 24.589 19.634 24.48 20.129C24.4003 20.4956 24.2669 20.8484 24.084 21.176C23.98 21.343 23.975 21.379 23.995 21.582C24.026 21.868 23.959 22.348 23.844 22.665C23.703 23.035 23.651 23.207 23.62 23.394C23.594 23.555 23.594 23.555 23.709 23.555C23.86 23.555 23.943 23.644 23.943 23.821C23.943 23.899 23.875 24.321 23.792 24.753C23.563 25.967 23.547 26.102 23.547 27.279C23.542 28.493 23.542 28.482 23.818 28.664L24.438 29.065C24.9714 29.419 25.5426 29.7125 26.141 29.94C27.011 30.284 27.131 30.372 27.131 30.664C27.131 30.794 27.105 30.841 26.996 30.945C26.663 31.268 26.006 31.341 24.683 31.2C23.9955 31.1356 23.3055 31.1026 22.615 31.101C20.792 31.075 20.526 31.012 20.287 30.559C20.152 30.299 20.178 29.96 20.365 29.403C20.448 29.158 20.521 28.908 20.584 28.653C20.709 28.049 20.626 27.33 20.334 26.518L20.084 25.825C19.839 25.122 19.704 23.835 19.85 23.544C19.876 23.487 19.923 23.476 20.048 23.481L20.204 23.497L20.334 23.226C20.433 23.012 20.542 22.872 20.839 22.575L21.219 22.195L21.198 21.95C21.182 21.716 20.875 20.58 20.833 20.585C20.817 20.585 20.734 20.7 20.64 20.845C20.411 21.189 19.906 21.72 19.619 21.913C19.494 21.996 19.39 22.095 19.39 22.127C19.385 22.268 19.265 22.544 19.119 22.736C18.978 22.924 18.968 22.955 18.989 23.121C19.025 23.366 18.947 24.152 18.854 24.564C18.7697 24.8699 18.6544 25.1664 18.51 25.449C18.151 26.194 17.88 26.86 17.812 27.168C17.7629 27.4645 17.7315 27.7637 17.718 28.064C17.702 28.418 17.666 28.762 17.64 28.835C17.604 28.934 17.604 29.012 17.635 29.163C17.661 29.272 17.677 29.517 17.671 29.71C17.666 29.976 17.687 30.148 17.765 30.46C17.9 30.991 17.926 31.325 17.864 31.523C17.822 31.648 17.781 31.695 17.64 31.763C17.327 31.924 16.442 32.013 15.963 31.93L15.964 31.932ZM17.229 31.505C17.411 31.453 17.568 31.297 17.568 31.156C17.568 31.093 17.516 30.911 17.453 30.75C17.328 30.443 17.114 29.63 17.114 29.495C17.114 29.427 17.119 29.422 17.223 29.479L17.338 29.542V29.396C17.3213 29.2614 17.2915 29.1288 17.249 29C17.15 28.703 17.14 28.698 16.509 28.661L16.082 28.64L15.926 28.791C15.8402 28.8793 15.7651 28.9773 15.702 29.083C15.634 29.218 15.608 29.422 15.65 29.468C15.66 29.484 15.765 29.468 15.879 29.442C15.9467 29.4219 16.0165 29.4098 16.087 29.406C16.087 29.411 15.972 29.505 15.827 29.604C15.202 30.073 14.983 30.359 14.983 30.724C14.983 31.104 15.342 31.401 15.905 31.49C16.29 31.547 17.04 31.563 17.228 31.506L17.229 31.505ZM25.703 30.885C25.859 30.697 25.838 30.505 25.64 30.286C25.525 30.171 25.395 30.072 25.249 29.994C25.103 29.916 24.957 29.827 24.811 29.734C24.5469 29.5628 24.2757 29.403 23.998 29.255C23.758 29.125 23.524 28.989 23.295 28.844L23.201 28.771V27.339C23.201 25.928 23.196 25.907 23.123 25.928C22.758 26.027 22.154 26.074 21.389 26.058L20.561 26.048L20.681 26.34C20.905 26.892 21.02 27.632 21.02 28.481C21.02 28.799 20.999 28.913 20.921 29.137C20.879 29.246 20.843 29.356 20.806 29.465C20.79 29.512 20.848 29.548 21.061 29.611C21.217 29.658 21.446 29.705 21.577 29.72L21.817 29.746L21.791 29.986C21.765 30.257 21.796 30.543 21.864 30.632C21.906 30.684 22.062 30.705 22.786 30.736C23.333 30.762 23.927 30.819 24.395 30.887C24.801 30.95 25.239 31.002 25.369 31.002C25.588 31.007 25.609 30.997 25.702 30.887L25.703 30.885ZM17.365 28.448C17.386 28.432 17.417 28.151 17.428 27.818C17.47 26.886 17.506 26.75 17.975 25.698C18.36 24.839 18.564 24.037 18.548 23.469L18.538 23.13L18.392 23.271C18.09 23.573 18.298 23.099 18.658 22.677C18.929 22.354 19.023 22.177 19.064 21.891C19.085 21.776 19.127 21.719 19.304 21.584C19.9663 21.0837 20.4766 20.4093 20.778 19.636C20.851 19.448 21.038 18.808 21.195 18.214C21.487 17.115 21.643 16.641 21.784 16.438C21.836 16.36 21.857 16.344 21.847 16.396C21.7715 16.6753 21.7124 16.9588 21.67 17.245C21.628 17.5 21.55 18 21.498 18.349C21.399 19.063 21.295 19.521 21.154 19.875L21.06 20.115L21.31 20.761C21.57 21.422 21.69 21.902 21.711 22.365L21.727 22.625L21.524 22.667C21.2561 22.7144 21.017 22.8639 20.857 23.084C20.68 23.339 20.581 23.548 20.628 23.594C20.649 23.615 20.904 23.662 21.196 23.698C21.649 23.75 21.821 23.75 22.42 23.714C22.68 23.704 22.936 23.678 23.191 23.641C23.248 23.62 23.306 23.506 23.399 23.209C23.613 22.527 23.654 22.287 23.628 21.808L23.607 21.386L23.716 21.245C23.971 20.922 24.169 20.339 24.252 19.656C24.351 18.823 24.169 17.078 23.83 15.578C23.669 14.864 23.601 14.437 23.601 14.125V13.849L23.346 13.875C22.429 13.974 21.32 13.948 20.643 13.807C20.273 13.734 19.341 13.458 19.138 13.369L18.977 13.296L18.956 13.478C18.94 13.577 18.925 13.676 18.904 13.78C18.873 13.889 18.883 13.915 19.076 14.103C19.316 14.348 19.389 14.473 19.389 14.639C19.389 14.743 19.332 14.827 19.04 15.129C18.8306 15.3524 18.5984 15.5532 18.347 15.728L18.008 15.957L17.862 16.462C17.341 18.311 17.242 19.993 17.586 21.196L17.669 21.498L17.502 21.706C16.877 22.492 16.507 23.091 16.45 23.425C16.4167 23.5895 16.3783 23.7529 16.335 23.915C16.2 24.431 16.095 25.186 16.049 26.004C16.017 26.6888 15.9719 27.3729 15.914 28.056L15.888 28.259L16.148 28.337C16.294 28.384 16.513 28.436 16.638 28.457C16.872 28.493 17.305 28.483 17.372 28.447L17.365 28.448ZM22.422 25.583C22.828 25.557 23.198 25.494 23.271 25.432C23.302 25.411 23.339 25.302 23.349 25.192L23.375 24.994L23.052 25.067C22.797 25.119 22.542 25.15 22.286 25.171C21.671 25.197 21.052 25.181 20.442 25.119C20.239 25.088 20.239 25.088 20.301 25.353C20.353 25.551 20.364 25.561 20.895 25.598C21.249 25.629 21.744 25.624 22.421 25.582L22.422 25.583ZM22.083 24.677C22.614 24.63 23.276 24.516 23.406 24.448C23.448 24.427 23.484 24.349 23.5 24.26L23.547 23.984L23.573 23.854L23.443 23.88C22.865 24 22.427 24.036 21.552 24.036C20.698 24.036 20.599 24.031 20.375 23.953C20.2889 23.9167 20.1973 23.8954 20.104 23.89C20.068 23.911 20.062 24.208 20.094 24.416C20.115 24.541 20.136 24.562 20.261 24.598C20.657 24.707 21.324 24.733 22.084 24.671L22.083 24.677ZM12.417 19.979C13.75 19.594 15.495 18.463 16.922 17.047C17.386 16.583 17.443 16.521 17.505 16.313L17.588 16.047C17.598 16.026 17.515 15.99 17.406 15.964C17.12 15.896 16.901 15.73 16.901 15.579C16.901 15.49 16.849 15.402 16.698 15.24C16.453 14.964 16.391 14.844 16.365 14.579L16.344 14.365L16.052 14.157C15.885 14.037 15.302 13.714 14.682 13.402C14.2099 13.1717 13.7479 12.9215 13.297 12.652C12.776 12.303 12.427 11.886 12.229 11.392C12.193 11.293 12.146 11.21 12.13 11.21C12.088 11.21 10.916 12.34 10.416 12.871C9.18201 14.173 8.33301 15.303 7.79601 16.35C7.66101 16.61 7.51501 16.918 7.47301 17.032L7.39501 17.24L7.48901 17.589C7.54601 17.777 7.66601 18.084 7.76001 18.266C8.08801 18.912 8.47901 19.302 9.12501 19.62C9.81801 19.964 10.432 20.084 11.458 20.068C12.01 20.063 12.172 20.047 12.416 19.974L12.417 19.979ZM1.89601 15.411C2.77101 14.635 3.97901 13.786 5.45901 12.906C6.42801 12.328 10.173 10.453 11.897 9.687C12.21 9.546 12.491 9.416 12.522 9.401C12.553 9.38 12.642 9.156 12.725 8.906C13.09 7.75 13.272 7.521 13.933 7.37C14.016 7.349 14.037 7.323 14.037 7.24C14.037 7.089 14.141 6.74 14.23 6.584C14.298 6.464 14.298 6.459 14.24 6.475C14.204 6.485 13.985 6.548 13.756 6.616C10.579 7.533 7.80301 8.751 5.40701 10.272C2.85001 11.897 1.37601 13.845 0.94901 16.178L0.91801 16.35L1.23101 16.043C1.39801 15.871 1.70001 15.59 1.89801 15.418L1.89601 15.411ZM25.464 15.854C25.719 15.724 26.115 15.125 26.261 14.651C26.303 14.484 26.386 14.328 26.506 14.198C26.891 13.771 27.209 12.995 27.214 12.464C27.214 11.636 26.745 11.318 26.063 11.672C25.974 11.714 25.902 11.745 25.891 11.735C25.855 11.699 26.047 11.511 26.282 11.365C26.589 11.162 26.647 11.042 26.647 10.61C26.6515 10.2608 26.5478 9.91881 26.35 9.631C26.256 9.49 26.22 9.397 26.235 9.339L26.329 8.99C26.459 8.526 26.412 7.995 26.209 7.657C25.907 7.147 25.537 6.897 25.021 6.855L24.719 6.834L24.896 7.032C25.422 7.6 25.677 8.313 25.573 8.923C25.521 9.236 25.474 9.298 25.172 9.418L24.995 9.491L25.016 9.731C25.052 10.122 24.985 10.408 24.735 10.934C24.61 11.2 24.516 11.439 24.527 11.465C24.558 11.554 24.902 11.72 25.173 11.788L25.439 11.851L25.272 11.908C25.053 11.976 25.006 12.075 25.006 12.434C25.006 12.762 25.053 12.898 25.292 13.257C25.401 13.413 25.474 13.575 25.485 13.668C25.506 13.814 25.501 13.824 25.381 13.866C25.245 13.9042 25.1051 13.927 24.964 13.934C24.474 13.965 24.438 13.981 24.219 14.189C24.021 14.377 24.016 14.387 24.016 14.595C24.016 14.881 24.125 15.46 24.193 15.538C24.282 15.632 24.776 15.877 24.969 15.913C25.1355 15.9548 25.3114 15.9345 25.464 15.856V15.854ZM18.25 15.464C18.568 15.214 18.818 14.964 18.958 14.75C19.047 14.62 19.052 14.594 19.01 14.484C18.937 14.317 18.458 13.885 18.192 13.755C18.0148 13.6756 17.8273 13.6214 17.635 13.594L17.307 13.552L17.104 13.297C16.682 12.776 16.448 12.37 16.114 11.583C15.822 10.916 15.567 10.526 15.161 10.14C14.994 9.984 14.875 9.854 14.885 9.854C14.906 9.854 15.104 9.953 15.333 10.073C15.713 10.276 15.76 10.292 15.932 10.266C16.552 10.193 17.099 9.48 17.297 8.48C17.354 8.199 17.469 7.912 17.589 7.74C17.594 7.735 17.834 7.891 18.115 8.094C18.829 8.599 18.985 8.677 19.391 8.693C19.657 8.703 19.808 8.683 20.287 8.568C21.308 8.318 22.412 8.219 23.084 8.308C23.464 8.36 24.011 8.527 24.417 8.719C24.818 8.907 24.896 8.917 25.026 8.802C25.135 8.708 25.135 8.693 25.135 8.344C25.13 7.828 24.942 7.271 24.656 6.938C24.51 6.766 24.099 6.485 23.692 6.271C23.5473 6.19425 23.4033 6.11625 23.26 6.037C23.067 5.922 22.849 5.938 22.255 6.094C21.567 6.271 21.385 6.271 20.599 6.068C19.932 5.901 19.891 5.896 19.234 6C18.885 6.052 18.01 6.021 17.718 5.943C17.572 5.901 17.426 5.86 17.286 5.808C17.031 5.709 16.588 5.693 16.187 5.766C15.39 5.907 14.786 6.339 14.567 6.927C14.452 7.224 14.468 7.365 14.619 7.458C14.859 7.609 15.176 8.021 15.176 8.182C15.176 8.192 15.098 8.125 15.009 8.031C14.785 7.797 14.582 7.692 14.342 7.692C14.1867 7.69631 14.0357 7.7439 13.9061 7.82942C13.7764 7.91493 13.6731 8.03497 13.608 8.176C13.5379 8.36 13.4788 8.548 13.431 8.739C13.285 9.27 13.155 9.552 12.879 9.927C12.634 10.266 12.598 10.417 12.686 10.797C12.905 11.755 13.285 12.141 14.873 13.042C15.706 13.516 16.133 13.782 16.446 14.016C16.686 14.193 16.691 14.204 16.67 14.339C16.623 14.652 16.821 14.99 17.212 15.266C17.311 15.334 17.373 15.407 17.373 15.459C17.373 15.553 17.639 15.683 17.831 15.683C17.94 15.683 18.024 15.636 18.248 15.464H18.25ZM24.672 13.708C25.276 13.729 25.307 13.682 24.985 13.307C24.646 12.916 24.553 12.599 24.678 12.25L24.73 12.115L24.516 12.011C24.443 11.975 24.37 11.938 24.297 11.912C24.261 12.053 24.224 12.188 24.193 12.329C24.115 12.647 24.021 13.47 24.016 13.819C24.016 13.85 24.068 13.84 24.157 13.783C24.282 13.71 24.345 13.7 24.673 13.71L24.672 13.708ZM22.646 13.677C23.011 13.656 23.386 13.63 23.485 13.614L23.667 13.588L23.688 12.989C23.719 12.135 23.844 11.63 24.214 10.822C24.474 10.249 24.589 9.749 24.532 9.374C24.511 9.213 24.501 9.202 24.282 9.108C23.881 8.94876 23.4634 8.83505 23.037 8.769C22.626 8.712 21.417 8.743 20.964 8.832C20.776 8.863 20.433 8.936 20.204 8.993C19.636 9.123 19.334 9.108 18.902 8.92C18.475 8.732 18.204 8.561 17.949 8.321C17.746 8.133 17.725 8.123 17.673 8.186C17.631 8.233 17.61 8.374 17.595 8.676C17.579 9.14 17.506 9.384 17.303 9.712C17.2579 9.77948 17.2194 9.85114 17.188 9.926C17.188 9.942 17.344 10.124 17.537 10.322C18.204 11.015 18.532 11.192 19.058 11.155C19.23 11.139 19.35 11.145 19.35 11.165C19.35 11.207 19.011 11.472 18.871 11.545C18.803 11.581 18.788 11.618 18.798 11.696L18.881 12.243C18.928 12.556 18.964 12.701 19.011 12.743C19.136 12.847 19.782 13.181 20.188 13.347C20.719 13.561 21.011 13.639 21.417 13.675C21.917 13.717 21.927 13.717 22.646 13.675V13.677ZM18.339 13.104C18.349 13.088 18.313 12.786 18.245 12.437C18.162 11.963 18.115 11.791 18.063 11.744C18.027 11.713 17.834 11.577 17.641 11.437C17.3874 11.2547 17.1472 11.0545 16.922 10.838L16.563 10.484L16.37 10.583L16.167 10.692C16.1841 10.7734 16.212 10.8521 16.25 10.926C16.307 11.051 16.422 11.358 16.505 11.608C16.724 12.259 16.896 12.572 17.328 13.139L17.489 13.353L17.796 13.4C17.968 13.426 18.14 13.463 18.187 13.478C18.26 13.509 18.27 13.494 18.291 13.327C18.301 13.254 18.317 13.176 18.338 13.103L18.339 13.104ZM24.938 6.625C25.204 6.599 25.251 6.562 25.136 6.443C25.063 6.37 24.896 6.365 24.761 6.427C24.672 6.469 24.652 6.458 24.511 6.307C24.365 6.146 24.355 6.14 24.172 6.161C24.005 6.182 23.979 6.177 23.958 6.109C23.893 5.9973 23.8121 5.89558 23.718 5.807C23.5997 5.67259 23.4518 5.56749 23.286 5.5C22.963 5.375 22.781 5.391 22.473 5.563C21.582 6.047 21.619 6.042 20.759 5.823C19.957 5.62 19.358 5.412 19.165 5.281C19.004 5.172 18.66 5.052 18.373 5.015C18.159 4.984 18.024 5.031 17.821 5.197L17.712 5.286L17.811 5.458C17.946 5.698 17.931 5.713 17.728 5.536C17.509 5.354 17.249 5.229 17.082 5.223C16.962 5.223 16.608 5.379 16.566 5.447C16.55 5.468 16.66 5.494 16.806 5.504C16.957 5.52 17.165 5.572 17.306 5.629C17.671 5.785 17.858 5.837 18.191 5.869C18.556 5.905 19.217 5.864 19.295 5.801C19.337 5.765 19.451 5.759 19.691 5.78C20.009 5.801 20.139 5.832 20.894 6.035C21.332 6.155 21.639 6.144 22.16 6.004C22.4 5.936 22.702 5.869 22.827 5.853C23.041 5.832 23.082 5.843 23.416 5.994C23.947 6.234 24.229 6.385 24.385 6.525C24.541 6.66 24.562 6.66 24.937 6.629L24.938 6.625ZM21.969 5.714L22.287 5.547L22.277 5.224C22.272 5 22.261 4.781 22.251 4.563L22.225 4.23L21.907 4.475C21.719 4.621 21.537 4.73 21.459 4.746C21.23 4.788 20.1 4.746 19.995 4.689C19.8551 4.58566 19.7243 4.47058 19.604 4.345L19.312 4.048L19.307 4.225C19.307 4.319 19.297 4.48 19.276 4.579C19.25 4.767 19.25 4.772 19.453 5.027C19.562 5.168 19.651 5.293 19.651 5.308C19.651 5.407 21.156 5.876 21.495 5.881C21.604 5.881 21.74 5.834 21.969 5.714ZM21.365 4.531C21.74 4.458 21.922 4.187 22.063 3.5C22.209 2.76 22.282 1.599 22.214 1.104C22.151 0.655997 21.651 0.457997 20.698 0.488997C20.104 0.509997 19.859 0.566997 19.656 0.738997C19.531 0.842997 19.531 0.853997 19.474 1.348C19.37 2.296 19.526 3.645 19.797 4.15C19.927 4.395 20.042 4.483 20.281 4.525C20.552 4.572 21.13 4.572 21.364 4.53L21.365 4.531Z" fill="#89CE02"/>
</svg>
