<svg width="231" height="98" viewBox="0 0 231 98" fill="none" xmlns="http://www.w3.org/2000/svg">
<path d="M8.0127 0L22.3297 1.58318L19.2761 29.1981L37.1845 31.1784L40.2381 3.56351L54.5552 5.14669L46.5426 77.6054L32.2256 76.0222L35.7891 43.7968L17.8807 41.8165L14.3172 74.0419L0.000169647 72.4587L8.0127 0Z" fill="black" fill-opacity="0.1"/>
<path d="M90.3188 82.4462L76.0018 80.863L82.6297 20.9256L64.2359 18.8916L65.6205 6.37031L116.725 12.0215L115.34 24.5428L96.9467 22.5088L90.3188 82.4462Z" fill="black" fill-opacity="0.1"/>
<path d="M125.315 12.9714L142.399 14.8605L147.522 47.6044L159.628 16.7657L176.808 18.6655L168.796 91.1242L156.468 89.7611L162.887 31.7164L151.714 62.5601L140.309 61.2989L136.049 28.7486L129.63 86.7933L117.303 85.4301L125.315 12.9714Z" fill="black" fill-opacity="0.1"/>
<path d="M183.938 92.7986L191.95 20.3399L206.267 21.9231L199.65 81.7634L230.274 85.1498L228.878 97.7682L183.938 92.7986Z" fill="black" fill-opacity="0.1"/>
</svg>
