<svg width="587" height="199" viewBox="0 0 587 199" fill="none" xmlns="http://www.w3.org/2000/svg">
<path d="M0.336071 65.8075L3.98573 49.512C6.09147 52.9192 8.52132 55.6984 11.2753 57.8497C14.061 60.0081 17.0262 61.4394 20.171 62.1438C23.8557 62.969 26.7621 62.6526 28.89 61.1943C31.018 59.7361 32.5337 56.99 33.4373 52.9558L41.4836 17.0294L24.2828 13.177L27.0573 0.788585L58.3142 7.7891L47.4933 56.1039C45.5511 64.7758 42.3338 70.5768 37.8413 73.5069C33.3877 76.4124 26.9838 76.9296 18.6295 75.0585C15.6118 74.3827 12.5437 73.2618 9.42509 71.6961C6.33825 70.1374 3.30858 68.1745 0.336071 65.8075Z" fill="black" fill-opacity="0.1"/>
<path d="M92.1167 63.7463C86.9072 62.5795 83.1207 62.432 80.7571 63.3037C78.3936 64.1754 76.849 66.2313 76.1233 69.4713C75.5826 71.8855 75.8669 73.9673 76.9762 75.7169C78.0855 77.4665 79.8631 78.6152 82.309 79.163C85.9938 79.9882 89.1621 79.2467 91.814 76.9385C94.4731 74.5985 96.3611 70.9349 97.478 65.9478L97.6915 64.9948L92.1167 63.7463ZM112.763 62.716L105.944 93.1629L92.0782 90.0575L93.4122 84.1016C91.2022 86.0751 88.6366 87.402 85.7155 88.0821C82.7945 88.7622 79.7457 88.7465 76.5691 88.0351C70.502 86.6763 66.1283 84.0121 63.4479 80.0426C60.7994 76.0802 60.119 71.2242 61.4067 65.4747C62.8011 59.2488 65.8462 55.1105 70.542 53.0598C75.2449 50.9774 81.8211 50.8824 90.2707 52.7748L99.9431 54.9412L100.466 52.6064C100.971 50.3511 100.526 48.4667 99.1302 46.9532C97.7734 45.4151 95.5068 44.2903 92.3303 43.5788C88.9949 42.8318 85.6588 42.535 82.322 42.6883C79.024 42.817 75.4693 43.4219 71.6578 44.5031L74.3257 32.5912C77.6915 32.0106 81.0302 31.7743 84.3419 31.8822C87.6536 31.9901 91.0883 32.4425 94.646 33.2393C103.318 35.1815 109.006 38.3069 111.711 42.6154C114.447 46.931 114.798 53.6312 112.763 62.716Z" fill="black" fill-opacity="0.1"/>
<path d="M178.837 53.4464L149.923 103.013L132.722 99.1603L127.711 41.9958L141.863 45.1653L143.924 89.3599L164.686 50.2769L178.837 53.4464Z" fill="black" fill-opacity="0.1"/>
<path d="M209.711 90.0836C204.502 88.9168 200.715 88.7693 198.352 89.641C195.988 90.5127 194.444 92.5686 193.718 95.8086C193.177 98.2228 193.462 100.305 194.571 102.054C195.68 103.804 197.458 104.952 199.904 105.5C203.588 106.326 206.757 105.584 209.409 103.276C212.068 100.936 213.956 97.2722 215.073 92.2851L215.286 91.3321L209.711 90.0836ZM230.357 89.0533L223.538 119.5L209.673 116.395L211.007 110.439C208.797 112.412 206.231 113.739 203.31 114.419C200.389 115.099 197.34 115.084 194.164 114.372C188.097 113.014 183.723 110.349 181.042 106.38C178.394 102.417 177.714 97.5615 179.001 91.812C180.396 85.5861 183.441 81.4478 188.137 79.3971C192.839 77.3147 199.416 77.2197 207.865 79.1121L217.538 81.2785L218.061 78.9437C218.566 76.6884 218.12 74.804 216.725 73.2905C215.368 71.7524 213.101 70.6276 209.925 69.9161C206.589 69.1691 203.253 68.8723 199.917 69.0256C196.619 69.1543 193.064 69.7592 189.252 70.8404L191.92 58.9285C195.286 58.3479 198.625 58.1116 201.936 58.2195C205.248 58.3274 208.683 58.7798 212.241 59.5766C220.912 61.5188 226.601 64.6442 229.305 68.9527C232.041 73.2683 232.392 79.9685 230.357 89.0533Z" fill="black" fill-opacity="0.1"/>
<path d="M288.339 79.7226L285.607 91.9204C283.404 89.6923 280.998 87.8523 278.387 86.4004C275.816 84.9238 273.132 83.8724 270.337 83.2464C267.224 82.5492 264.77 82.4833 262.976 83.0488C261.188 83.5825 260.095 84.7387 259.697 86.5176C259.128 89.0588 262.064 91.8848 268.506 94.9955L268.998 95.2558L272.787 97.1052C277.6 99.4506 280.878 102.236 282.624 105.463C284.409 108.665 284.789 112.553 283.765 117.127C282.534 122.622 279.799 126.346 275.558 128.299C271.357 130.227 265.635 130.38 258.393 128.758C255.185 128.039 251.961 127.017 248.722 125.691C245.476 124.397 242.246 122.806 239.032 120.919L241.764 108.721C244.454 111.158 247.284 113.193 250.255 114.826C253.257 116.465 256.25 117.62 259.236 118.288C262.508 119.021 265.093 119.1 266.99 118.524C268.887 117.948 270.038 116.755 270.443 114.944C270.842 113.165 270.544 111.664 269.55 110.441C268.589 109.225 265.989 107.575 261.752 105.492L258.085 103.77C253.019 101.368 249.551 98.606 247.681 95.4852C245.811 92.3644 245.36 88.644 246.328 84.3239C247.48 79.178 250.235 75.5918 254.592 73.5653C258.949 71.5388 264.494 71.2797 271.228 72.7879C274.246 73.4638 277.191 74.3902 280.063 75.5672C282.974 76.7195 285.733 78.1047 288.339 79.7226Z" fill="black" fill-opacity="0.1"/>
<path d="M339.502 142.62C336.845 143.46 334.092 143.91 331.243 143.973C328.386 144.067 325.401 143.765 322.288 143.068C314.061 141.225 308.184 137.307 304.656 131.313C301.128 125.319 300.346 117.938 302.309 109.171C304.28 100.372 308.155 94.018 313.934 90.1085C319.721 86.1672 326.728 85.1178 334.955 86.9604C337.814 87.6007 340.487 88.5497 342.974 89.8072C345.493 91.0719 347.914 92.6983 350.237 94.6865L347.377 107.456C345.736 105.254 343.795 103.418 341.555 101.949C339.355 100.455 336.952 99.4168 334.347 98.8334C329.805 97.8161 325.987 98.4788 322.894 100.822C319.8 103.164 317.656 107.004 316.461 112.341C315.266 117.677 315.571 122.049 317.376 125.455C319.182 128.862 322.356 131.074 326.898 132.092C329.598 132.696 332.223 132.817 334.773 132.454C337.33 132.059 339.863 131.176 342.372 129.803L339.502 142.62Z" fill="black" fill-opacity="0.1"/>
<path d="M410.634 120.823C409.422 119.084 407.862 117.633 405.954 116.472C404.077 115.318 401.916 114.467 399.47 113.919C396.516 113.258 393.81 113.202 391.351 113.752C388.932 114.278 386.898 115.39 385.25 117.089C384.217 118.125 383.35 119.466 382.648 121.11C381.978 122.761 381.252 125.334 380.469 128.828L374.963 153.414L361.002 150.288L372.954 96.9221L386.915 100.049L385.058 108.34C387.107 105.596 389.73 103.715 392.927 102.696C396.131 101.646 399.623 101.544 403.403 102.391C405.309 102.818 407.114 103.472 408.818 104.354C410.561 105.211 412.158 106.27 413.611 107.529L410.634 120.823Z" fill="black" fill-opacity="0.1"/>
<path d="M428.416 109.344L456.052 115.533L446.501 158.178L463.844 162.062L461.443 172.783L412.747 161.877L415.148 151.156L432.54 155.051L439.69 123.127L426.015 120.065L428.416 109.344ZM447.907 86.4385L461.868 89.5652L458.218 105.861L444.257 102.734L447.907 86.4385Z" fill="black" fill-opacity="0.1"/>
<path d="M487.477 170.708L481.245 198.534L467.332 195.418L483.83 121.755L497.743 124.871L495.951 132.876C498.102 130.122 500.543 128.233 503.274 127.21C506.005 126.187 508.975 126.035 512.183 126.754C518.282 128.12 522.467 131.626 524.738 137.272C527.01 142.918 527.15 150.188 525.158 159.082C523.137 168.103 519.871 174.644 515.359 178.704C510.879 182.771 505.478 184.097 499.157 182.681C496.298 182.04 493.888 180.734 491.929 178.76C490.008 176.762 488.524 174.078 487.477 170.708ZM511.218 155.86C512.371 150.714 512.417 146.488 511.356 143.181C510.295 139.875 508.256 137.883 505.238 137.207C502.22 136.532 499.511 137.459 497.109 139.99C494.708 142.521 492.931 146.36 491.778 151.506C490.625 156.652 490.595 160.882 491.688 164.195C492.781 167.509 494.836 169.504 497.853 170.18C500.871 170.856 503.565 169.924 505.935 167.386C508.305 164.848 510.066 161.006 511.218 155.86Z" fill="black" fill-opacity="0.1"/>
<path d="M571.751 125.534L568.357 140.686L586.606 144.773L584.205 155.494L565.956 151.407L560.3 176.66C559.767 179.042 559.954 180.886 560.863 182.19C561.811 183.47 563.635 184.412 566.335 185.017L577.055 187.418L574.654 198.139L562.933 195.513C554.928 193.721 549.797 191.237 547.539 188.063C545.288 184.856 544.938 179.791 546.489 172.866L551.995 148.28L538.368 145.228L540.769 134.507L554.397 137.559L557.79 122.407L571.751 125.534Z" fill="black" fill-opacity="0.1"/>
</svg>
