<svg width="44" height="45" viewBox="0 0 44 45" fill="none" xmlns="http://www.w3.org/2000/svg">
<path d="M32.7135 21.2625C33.0222 21.2259 33.3342 21.2259 33.643 21.2625C33.8118 20.8814 33.8413 20.2148 33.6866 19.4977C33.4672 18.4289 33.1663 17.7764 32.5363 17.8791C31.9133 17.9817 31.8922 18.758 32.1116 19.8267C32.2438 20.4272 32.4632 20.9475 32.7121 21.2625H32.7135ZM27.3514 22.1119C27.7986 22.3102 28.0686 22.4409 28.1797 22.3242C28.2458 22.2511 28.2304 22.1189 28.1207 21.9431C27.9013 21.5845 27.4471 21.2175 26.9633 21.0136C26.4649 20.805 25.9209 20.7291 25.3845 20.7932C24.848 20.8572 24.3372 21.0591 23.9019 21.3792C23.601 21.5986 23.3239 21.9066 23.3605 22.0894C23.3746 22.1484 23.4196 22.192 23.5222 22.2061C23.7711 22.2356 24.6275 21.8039 25.6246 21.7378C26.3207 21.6942 26.9057 21.9136 27.3529 22.1119H27.3514ZM26.4514 22.6252C25.865 22.7208 25.55 22.9106 25.3461 23.0864C25.1633 23.2397 25.0607 23.4155 25.0607 23.5336L25.1043 23.6433L25.1999 23.6798C25.3321 23.6798 25.6246 23.5547 25.6246 23.5547C26.2228 23.3316 26.8683 23.2662 27.4991 23.3648C27.7916 23.3944 27.9308 23.4155 27.9969 23.3142C28.011 23.2847 28.0335 23.2256 27.9744 23.1314C27.8422 22.905 27.2488 22.5309 26.4514 22.6266V22.6252ZM30.905 24.5137C31.3002 24.7036 31.7333 24.6305 31.8725 24.345C32.0188 24.0525 31.8135 23.6559 31.4183 23.4661C31.0232 23.2678 30.59 23.3494 30.4438 23.6348C30.3046 23.9273 30.5099 24.3155 30.905 24.5137V24.5137ZM33.4461 22.2877C33.1241 22.2806 32.8527 22.6322 32.8527 23.078C32.8457 23.5181 33.0946 23.8767 33.4166 23.8837C33.7386 23.8908 34.003 23.5392 34.01 23.1005C34.0171 22.6603 33.7611 22.2947 33.4461 22.2877V22.2877ZM11.8757 30.2414C11.7955 30.1458 11.6633 30.1753 11.5382 30.2048C11.439 30.2264 11.3384 30.241 11.2372 30.2484C11.13 30.2492 11.0242 30.2244 10.9285 30.1759C10.8329 30.1275 10.7502 30.0569 10.6874 29.97C10.5411 29.7436 10.5482 29.4061 10.7099 29.025L10.783 28.8492C11.0474 28.2712 11.4721 27.3037 10.9883 26.3812C10.6297 25.6852 10.0363 25.2534 9.31769 25.1648C8.97967 25.1203 8.6359 25.1569 8.31482 25.2716C7.99375 25.3863 7.70459 25.5757 7.47129 25.8244C6.76113 26.6077 6.65144 27.6778 6.79066 28.0589C6.84129 28.1981 6.92285 28.2347 6.98051 28.2417C7.09722 28.2558 7.27301 28.1686 7.39113 27.8677L7.42066 27.772C7.47129 27.6103 7.56691 27.3108 7.71316 27.0759C7.80542 26.9334 7.92501 26.8106 8.06502 26.7145C8.20502 26.6185 8.36267 26.5511 8.52886 26.5163C8.69504 26.4815 8.86647 26.48 9.03325 26.5119C9.20002 26.5437 9.35883 26.6083 9.50051 26.7019C9.74321 26.8604 9.92384 27.0977 10.012 27.3738C10.1001 27.65 10.0903 27.948 9.98426 28.2178C9.87457 28.5258 9.69176 29.0967 9.73535 29.5734C9.81551 30.5325 10.4019 30.9136 10.9293 30.9572C11.4425 30.9797 11.8011 30.6858 11.8968 30.4734C11.9474 30.3483 11.9038 30.2752 11.8743 30.2386L11.8757 30.2414ZM41.5461 28.4906C41.5236 28.4175 41.3999 27.9492 41.2241 27.3923L40.8655 26.4333C41.5686 25.3786 41.5827 24.4336 41.4885 23.8992C41.3858 23.2397 41.1144 22.6758 40.5589 22.0978C40.0091 21.5114 38.8743 20.9109 37.2782 20.4652L36.4429 20.2387C36.4429 20.2022 36.3993 18.2616 36.3627 17.4333C36.3402 16.8328 36.2896 15.8878 35.9971 14.9653C35.6525 13.7123 35.045 12.6141 34.2899 11.9109C36.3697 9.75093 37.6733 7.37015 37.6663 5.3339C37.6593 1.40062 32.8471 0.213746 26.9141 2.67468L25.6541 3.20906C24.8849 2.45531 24.1227 1.70015 23.3464 0.946402C16.5782 -4.96407 -4.57324 18.5836 2.1866 24.3112L3.66597 25.5642C3.27086 26.6381 3.1303 27.7891 3.25535 28.9266C3.41707 30.5016 4.22285 32.0105 5.54051 33.1748C6.78504 34.2802 8.42613 34.9833 10.0236 34.9833C12.6533 41.0555 18.6664 44.7834 25.7118 44.9958C33.2774 45.2152 39.628 41.663 42.2858 35.2772C42.4616 34.83 43.2013 32.8092 43.2013 31.0289C43.2013 29.2345 42.1902 28.4948 41.5461 28.4948V28.4906ZM10.6016 33.2662C10.3698 33.3093 10.134 33.3262 9.89847 33.3169C7.62035 33.2578 5.15238 31.2005 4.90347 28.7536C4.63207 26.0508 6.00879 23.978 8.44863 23.4872C8.78613 23.4141 9.12926 23.3916 9.47379 23.407C10.8435 23.4872 12.8572 24.5348 13.3114 27.5161C13.7221 30.1598 13.0766 32.8486 10.6016 33.2733V33.2662ZM8.05347 21.87C6.53754 22.1625 5.19738 23.0273 4.37613 24.2142C3.88535 23.812 2.97691 23.0203 2.8166 22.7123C1.51301 20.2219 4.24535 15.3956 6.14941 12.6633C10.866 5.92453 18.2558 0.819839 21.6772 1.74234C22.2341 1.90406 24.0721 4.04156 24.0721 4.04156C24.0721 4.04156 20.6521 5.93859 17.4796 8.58937C13.2102 11.8856 9.98707 16.6683 8.05347 21.8686V21.87ZM32.0244 32.2636C32.075 32.2411 32.113 32.1834 32.1046 32.1314C32.0975 32.0583 32.0385 32.0062 31.9654 32.0147C31.9654 32.0147 28.3907 32.5491 25.0072 31.3045C25.3729 30.1106 26.3544 30.5423 27.8338 30.6605C30.1345 30.8001 32.4423 30.55 34.6597 29.9208C36.1911 29.4806 38.1979 28.6172 39.7644 27.3797C40.2918 28.537 40.4746 29.8111 40.4746 29.8111C40.4746 29.8111 40.8852 29.738 41.2213 29.9503C41.5433 30.1486 41.7782 30.5662 41.6164 31.628C41.2944 33.6206 40.445 35.2392 39.0233 36.7327C38.136 37.6951 37.078 38.4846 35.9029 39.0614C35.2507 39.4035 34.5721 39.6927 33.8736 39.9262C28.5116 41.677 23.0258 39.7505 21.2539 35.6119C21.114 35.2933 20.9965 34.9653 20.9024 34.6303C20.1486 31.905 20.7857 28.6312 22.7924 26.5739C22.9091 26.4417 23.0343 26.2884 23.0343 26.0902C23.0343 25.9284 22.9316 25.7611 22.8444 25.6359C22.1483 24.6178 19.7239 22.8895 20.2077 19.5342C20.5593 17.1239 22.6616 15.4322 24.6247 15.5278L25.1225 15.5573C25.9719 15.608 26.7116 15.7191 27.4077 15.7472C28.5791 15.7978 29.6338 15.6305 30.8797 14.5898C31.2974 14.2383 31.6335 13.9303 32.2058 13.8361C32.2649 13.8291 32.4182 13.77 32.7107 13.7855C33.0161 13.799 33.3121 13.8952 33.5671 14.0639C34.5711 14.7305 34.7104 16.342 34.761 17.5205C34.7905 18.1941 34.8707 19.8197 34.9002 20.2894C34.9663 21.3581 35.2447 21.5128 35.8086 21.6956C36.1307 21.8053 36.4316 21.8855 36.8633 22.0036C38.1894 22.3777 38.9727 22.7573 39.4635 23.2411C39.7644 23.542 39.8952 23.8641 39.9402 24.1706C40.1019 25.3139 39.0613 26.7202 36.3079 28.0012C33.2971 29.4005 29.6507 29.752 27.1307 29.4736L26.2447 29.3709C24.231 29.0995 23.0807 31.7067 24.2886 33.5025C25.0649 34.6528 27.1968 35.4066 29.3202 35.4066C34.1914 35.4066 37.9405 33.3197 39.3327 31.5169L39.4424 31.3552C39.5155 31.2525 39.4564 31.2019 39.3693 31.2595C38.2344 32.0358 33.1733 35.1337 27.7677 34.2042C27.7677 34.2042 27.1082 34.0945 26.5077 33.8597C26.031 33.6769 25.0354 33.2156 24.9116 32.1891C29.2766 33.5447 32.023 32.2622 32.023 32.2622L32.0244 32.2636ZM25.1113 31.4423H25.1183H25.1113ZM16.761 12.6337C18.4386 10.6931 20.503 9.00843 22.3494 8.06343C22.4155 8.02687 22.4816 8.1 22.4521 8.15906C22.3058 8.42343 22.0203 9.0014 21.9318 9.42609C21.9177 9.49218 21.9908 9.54281 22.0414 9.50625C23.1988 8.72296 25.1985 7.88062 26.9563 7.77093C27.0294 7.77093 27.066 7.86656 27.0069 7.91015C26.7162 8.1348 26.4553 8.39566 26.2307 8.6864C26.2226 8.69731 26.2177 8.71025 26.2165 8.72378C26.2154 8.73731 26.218 8.7509 26.2241 8.76301C26.2303 8.77513 26.2396 8.7853 26.2512 8.79238C26.2628 8.79947 26.2761 8.80319 26.2897 8.80312C27.5272 8.81718 29.2639 9.25031 30.3918 9.88734C30.4719 9.93093 30.4213 10.0772 30.3327 10.0561C28.6185 9.66093 25.813 9.36 22.8993 10.0786C20.2991 10.7156 18.3149 11.6902 16.8636 12.7519C16.7905 12.8025 16.7019 12.7083 16.761 12.6352V12.6337Z" fill="white"/>
</svg>
