<svg width="83" height="45" viewBox="0 0 83 45" fill="none" xmlns="http://www.w3.org/2000/svg">
<path d="M25.0926 29.7604C29.2127 29.7604 32.5527 26.4205 32.5527 22.3001C32.5527 18.1803 29.2127 14.8404 25.0923 14.8404C20.9726 14.8404 17.6326 18.18 17.6326 22.3004C17.6326 26.4205 20.9726 29.7604 25.0926 29.7604ZM7.46004 44.6802C11.5801 44.6802 14.9201 41.3405 14.9201 37.2201C14.9201 33.1004 11.5801 29.7604 7.45971 29.7604C3.34029 29.7604 0 33.1001 0 37.2201C0 41.3402 3.33964 44.6802 7.46004 44.6802ZM74.8257 44.6802C78.9457 44.6802 82.2857 41.3405 82.2857 37.2201C82.2857 33.1004 78.9461 29.7604 74.8257 29.7604C70.7056 29.7604 67.3656 33.1001 67.3656 37.2201C67.3656 41.3402 70.7053 44.6802 74.8257 44.6802Z" fill="black"/>
<path d="M50.3245 22.6147C50.086 20.1224 49.9645 18.0479 48.0552 16.5899C45.6374 14.7436 42.8982 15.9416 39.5245 14.7237C36.2089 13.9217 33.75 10.9784 33.75 7.47C33.75 3.34446 37.1501 0 41.3441 0C44.4507 0 47.1214 1.83439 48.2979 4.46239C50.0982 7.88239 48.9279 11.3625 51.1901 13.1156C53.8685 15.1914 57.4798 13.6713 61.5092 15.6381C62.7953 16.2283 63.8908 17.1663 64.6721 18.3462C65.4697 19.5511 65.8943 20.9644 65.8929 22.4094C65.8929 25.9177 63.4339 28.8614 60.1187 29.6634C56.7447 30.8813 54.0055 29.6833 51.5877 31.5296C48.8684 33.606 50.3241 37.0797 48.1079 40.7488C46.8501 43.1653 44.2935 44.819 41.3441 44.819C37.1501 44.819 33.75 41.4746 33.75 37.349C33.75 34.3524 35.5442 31.7677 38.1336 30.5778C42.1631 28.6107 45.774 30.131 48.4528 28.0552C49.9979 26.8576 50.3245 25.0104 50.3245 22.6147Z" fill="#D0021B"/>
</svg>
