<svg width="55" height="49" viewBox="0 0 55 49" fill="none" xmlns="http://www.w3.org/2000/svg">
<path d="M45.221 15.8819C44.6356 15.6808 44.0453 15.4945 43.4506 15.3232C43.5505 14.9144 43.6425 14.5106 43.7241 14.1139C45.0643 7.59951 44.1882 2.35136 41.1956 0.623416C38.3264 -1.0331 33.634 0.694194 28.895 4.82409C28.4279 5.23184 27.9712 5.65134 27.5254 6.08218C27.2269 5.79568 26.9231 5.51474 26.6142 5.23951C21.6474 0.823704 16.6691 -1.03741 13.6797 0.695485C10.8131 2.35717 9.96424 7.2908 11.1708 13.4647C11.2908 14.0761 11.4264 14.6844 11.5773 15.289C10.8726 15.4895 10.1926 15.7029 9.54185 15.9301C3.71873 17.9631 0 21.149 0 24.4536C0 27.8667 3.99223 31.2901 10.0573 33.3659C10.549 33.5335 11.0448 33.6888 11.5442 33.8317C11.382 34.4828 11.238 35.1384 11.1124 35.7975C9.96209 41.8643 10.8604 46.6813 13.7193 48.3324C16.6721 50.0376 21.6281 48.2851 26.4537 44.061C26.845 43.7176 27.2277 43.3644 27.6014 43.0019C28.0843 43.4684 28.58 43.9214 29.0881 44.3602C33.7627 48.3879 38.3793 50.0144 41.2354 48.3587C44.1854 46.6486 45.1443 41.4738 43.8995 35.178C43.8014 34.6847 43.6914 34.1939 43.5697 33.706C43.9177 33.6028 44.2593 33.4965 44.5923 33.3859C50.8976 31.2942 55 27.9123 55 24.4536C55 21.1369 51.1612 17.9295 45.221 15.8819ZM43.8535 31.1528C43.5527 31.2524 43.2442 31.3486 42.9296 31.4422C42.2336 29.2356 41.2943 26.8893 40.1446 24.465C41.2416 22.0986 42.1448 19.7822 42.8214 17.59C43.384 17.7531 43.93 17.925 44.4563 18.1064C49.546 19.861 52.6505 22.4548 52.6505 24.4536C52.6505 26.5826 49.2976 29.3464 43.8535 31.1528ZM41.5946 35.6349C42.145 38.4187 42.2235 40.9358 41.8589 42.9036C41.5314 44.6718 40.8727 45.8505 40.058 46.3227C38.3249 47.3273 34.6182 46.0215 30.6206 42.5768C30.148 42.1688 29.6869 41.7477 29.2377 41.314C30.7875 39.6168 32.3363 37.6438 33.848 35.4525C36.5069 35.2163 39.0188 34.8299 41.2968 34.3026C41.4066 34.7443 41.5059 35.1885 41.5946 35.6349ZM18.7507 46.1491C17.0573 46.7478 15.7085 46.765 14.8932 46.2943C13.1583 45.2924 12.4371 41.4246 13.4209 36.2364C13.5378 35.6234 13.6717 35.0136 13.8224 34.408C16.0753 34.9071 18.5689 35.266 21.2341 35.4824C22.756 37.6266 24.3495 39.5974 25.9555 41.3232C25.6142 41.6539 25.2648 41.9761 24.9077 42.2896C22.7737 44.1574 20.6353 45.4826 18.7507 46.1491ZM10.8174 31.1397C8.13549 30.2217 5.92066 29.0288 4.40258 27.7271C3.03832 26.5574 2.34975 25.3959 2.34975 24.4536C2.34975 22.4482 5.33543 19.8902 10.3153 18.1518C10.9196 17.9409 11.5521 17.7419 12.2085 17.5552C12.8969 19.7969 13.7996 22.1407 14.8891 24.5108C13.7854 26.916 12.8698 29.2973 12.1748 31.5655C11.7189 31.4347 11.2663 31.2927 10.8174 31.1397ZM13.4767 13.0127C12.4431 7.72321 13.1295 3.73315 14.8571 2.73171C16.697 1.66509 20.7657 3.18586 25.0542 6.99886C25.3339 7.24807 25.609 7.50232 25.8794 7.76151C24.2814 9.47977 22.7025 11.436 21.1941 13.5675C18.6074 13.8076 16.1313 14.1931 13.8548 14.7096C13.7146 14.1473 13.5885 13.5813 13.4767 13.0127ZM37.2013 18.8789C36.6636 17.9489 36.1059 17.0305 35.5287 16.1246C37.2836 16.3468 38.9649 16.6417 40.5438 17.0023C40.0699 18.5237 39.479 20.1142 38.7836 21.7449C38.2753 20.7791 37.7477 19.8236 37.2013 18.8789ZM27.5264 9.44298C28.6101 10.6187 29.6955 11.9312 30.763 13.3554C28.5974 13.253 26.4282 13.2525 24.2625 13.3541C25.3312 11.943 26.4258 10.6322 27.5264 9.44298ZM17.7895 18.895C17.2499 19.8321 16.7322 20.7817 16.2368 21.743C15.5528 20.1181 14.9673 18.5203 14.4893 16.9773C16.0585 16.6258 17.7319 16.3384 19.4756 16.1203C18.8919 17.0318 18.3298 17.9571 17.7895 18.895ZM19.5256 32.9544C17.7242 32.753 16.0256 32.4804 14.4568 32.1384C14.9424 30.5679 15.5407 28.9361 16.2396 27.2764C16.7369 28.2384 17.2568 29.1885 17.7987 30.126C18.356 31.0898 18.9331 32.0338 19.5256 32.9544ZM27.5913 39.6299C26.4776 38.4269 25.3668 37.0959 24.2821 35.6644C25.3352 35.7057 26.4088 35.7268 27.5 35.7268C28.6211 35.7268 29.7292 35.7016 30.82 35.653C29.749 37.1103 28.6677 38.4432 27.5913 39.6299ZM38.8057 27.1916C39.5409 28.8696 40.1605 30.4928 40.6525 32.0364C39.0579 32.4008 37.3362 32.6943 35.5221 32.9122C36.1034 31.9894 36.6663 31.0551 37.2105 30.1099C37.7638 29.1491 38.2957 28.1761 38.8057 27.1916ZM35.1753 28.9344C34.3422 30.3836 33.4622 31.8053 32.5368 33.1972C30.8605 33.3161 29.1805 33.3752 27.5 33.3743C25.7883 33.3743 24.1235 33.3209 22.5204 33.2168C21.5708 31.8281 20.674 30.4039 19.832 28.9473C18.9939 27.4984 18.2114 26.0182 17.4855 24.5098C18.2095 23.001 18.9899 21.5201 19.8251 20.0701C20.66 18.6197 21.5494 17.2018 22.4918 15.8191C24.1274 15.6952 25.8047 15.6306 27.4998 15.6306C29.2026 15.6306 30.8823 15.6958 32.5175 15.8206C33.4503 17.2013 34.3342 18.6145 35.1676 20.0576C36.0055 21.5044 36.7963 22.9781 37.5386 24.4764C36.8039 25.99 36.0157 27.477 35.1753 28.9344ZM40.0222 2.66158C41.8638 3.72519 42.5801 8.01429 41.4229 13.6389C41.349 13.9978 41.2661 14.3633 41.1759 14.7339C38.8938 14.2064 36.416 13.8143 33.8218 13.5705C32.3106 11.4155 30.7446 9.45632 29.1726 7.76021C29.5846 7.36254 30.0063 6.97519 30.4376 6.5985C34.4981 3.06022 38.2931 1.66315 40.0222 2.66158ZM27.5 19.5357C30.2124 19.5357 32.4113 21.7376 32.4113 24.4536C32.4113 27.1697 30.2124 29.3715 27.5 29.3715C24.7876 29.3715 22.5887 27.1697 22.5887 24.4536C22.5887 21.7376 24.7876 19.5357 27.5 19.5357Z" fill="#00D8FF"/>
</svg>
