<svg width="250" height="110" viewBox="0 0 250 110" fill="none" xmlns="http://www.w3.org/2000/svg">
<path d="M22.382 76.6514C14.7633 75.1329 9.43386 73.0954 6.3937 70.539C3.34812 67.9504 1.39677 64.1205 0.539658 59.0492C-0.561569 52.5335 0.659479 47.0614 4.2028 42.633C7.74612 38.2045 13.1608 35.3746 20.4468 34.1432C23.7528 33.5844 27.1238 33.4108 30.56 33.6224C33.9908 33.8019 37.4518 34.3559 40.9431 35.2845L43.2866 49.1503C39.8739 47.5152 36.4999 46.4017 33.1646 45.81C29.8292 45.2182 26.6209 45.1827 23.5396 45.7035C20.1052 46.2839 17.5899 47.4188 15.9936 49.1082C14.3974 50.7976 13.8162 52.9262 14.2502 55.4939C14.5866 57.4839 15.5239 59.0257 17.0623 60.1193C18.6274 61.1753 21.6612 62.1316 26.1638 62.9883L32.6688 64.2659C38.8043 65.4078 43.5318 67.4975 46.8514 70.535C50.1709 73.5724 52.2809 77.7552 53.1814 83.0833C54.4074 90.3372 53.1737 96.125 49.4803 100.447C45.8136 104.731 39.6471 107.605 30.981 109.07C27.4182 109.672 23.7662 109.844 20.0249 109.585C16.3211 109.352 12.6591 108.684 9.03891 107.579L6.55708 92.8947C10.8002 94.9507 14.7983 96.3383 18.5514 97.0576C22.3365 97.7714 25.9623 97.8354 29.4288 97.2495C32.9274 96.6582 35.5066 95.4134 37.1666 93.5152C38.8212 91.5849 39.4071 89.1914 38.9243 86.3348C38.5608 84.1843 37.6016 82.4151 36.0464 81.0272C34.4859 79.6073 32.4073 78.6381 29.8106 78.1195L22.382 76.6514Z" fill="black" fill-opacity="0.1"/>
<path d="M120.18 90.4289C118.129 91.9641 115.916 93.2295 113.542 94.2249C111.169 95.2204 108.618 95.9487 105.889 96.4098C96.1961 98.048 88.258 96.1048 82.075 90.5801C75.8921 85.0553 71.7808 76.2587 69.7411 64.1903C67.6959 52.0898 68.6853 42.4146 72.7092 35.1648C76.7331 27.915 83.5916 23.4709 93.2849 21.8326C96.0131 21.3715 98.6778 21.2183 101.279 21.3729C103.88 21.5275 106.37 21.9981 108.748 22.7847L111.417 38.5764C108.598 36.7419 105.946 35.5064 103.461 34.8699C101.003 34.1958 98.5546 34.065 96.1153 34.4772C90.9156 35.356 87.3336 38.0908 85.3693 42.6816C83.4318 47.2348 83.1492 53.5717 84.5217 61.6922C85.8887 69.7806 88.2381 75.6727 91.5698 79.3683C94.9283 83.0265 99.2073 84.4161 104.407 83.5373C106.846 83.125 109.119 82.2128 111.224 80.8005C113.356 79.3507 115.452 77.2963 117.511 74.6372L120.18 90.4289Z" fill="black" fill-opacity="0.1"/>
<path d="M153.037 54.5692C145.418 53.0506 140.089 51.0132 137.049 48.4567C134.003 45.8682 132.052 42.0382 131.195 36.9669C130.093 30.4513 131.314 24.9792 134.858 20.5507C138.401 16.1223 143.816 13.2923 151.102 12.0609C154.408 11.5022 157.779 11.3286 161.215 11.5401C164.646 11.7196 168.107 12.2736 171.598 13.2022L173.941 27.0681C170.529 25.4329 167.155 24.3195 163.819 23.7277C160.484 23.1359 157.276 23.1004 154.194 23.6212C150.76 24.2017 148.245 25.3366 146.649 27.026C145.052 28.7153 144.471 30.8439 144.905 33.4117C145.241 35.4017 146.179 36.9434 147.717 38.037C149.282 39.093 152.316 40.0494 156.819 40.9061L163.324 42.1836C169.459 43.3256 174.187 45.4153 177.506 48.4527C180.826 51.4902 182.936 55.6729 183.836 61.001C185.062 68.2549 183.829 74.0427 180.135 78.3645C176.468 82.6488 170.302 85.5232 161.636 86.9879C158.073 87.5901 154.421 87.7616 150.68 87.5026C146.976 87.2702 143.314 86.6016 139.694 85.4967L137.212 70.8124C141.455 72.8684 145.453 74.2561 149.206 74.9753C152.991 75.6891 156.617 75.7531 160.084 75.1672C163.582 74.5759 166.162 73.3312 167.822 71.4329C169.476 69.5026 170.062 67.1091 169.579 64.2525C169.216 62.102 168.256 60.3328 166.701 58.945C165.141 57.525 163.062 56.5558 160.465 56.0373L153.037 54.5692Z" fill="black" fill-opacity="0.1"/>
<path d="M218.364 43.528C210.746 42.0095 205.416 39.972 202.376 37.4156C199.33 34.827 197.379 30.9971 196.522 25.9258C195.421 19.4101 196.642 13.9381 200.185 9.5096C203.728 5.08114 209.143 2.2512 216.429 1.01978C219.735 0.461033 223.106 0.287443 226.542 0.499019C229.973 0.678497 233.434 1.23251 236.925 2.16107L239.269 16.0269C235.856 14.3918 232.482 13.2783 229.147 12.6866C225.812 12.0948 222.603 12.0593 219.522 12.5801C216.088 13.1605 213.572 14.2955 211.976 15.9848C210.38 17.6742 209.799 19.8028 210.233 22.3705C210.569 24.3605 211.506 25.9023 213.045 26.9959C214.61 28.0519 217.644 29.0083 222.146 29.8649L228.651 31.1425C234.787 32.2844 239.514 34.3741 242.834 37.4116C246.153 40.449 248.263 44.6318 249.164 49.9599C250.39 57.2138 249.156 63.0016 245.463 67.3234C241.796 71.6076 235.629 74.4821 226.963 75.9468C223.401 76.5489 219.748 76.7205 216.007 76.4615C212.303 76.2291 208.641 75.5605 205.021 74.4556L202.539 59.7713C206.782 61.8273 210.781 63.2149 214.534 63.9342C218.319 64.648 221.945 64.712 225.411 64.1261C228.91 63.5348 231.489 62.29 233.149 60.3918C234.804 58.4615 235.389 56.068 234.907 53.2114C234.543 51.0609 233.584 49.2917 232.029 47.9039C230.468 46.4839 228.39 45.5147 225.793 44.9961L218.364 43.528Z" fill="black" fill-opacity="0.1"/>
</svg>
